<svg width="16" height="17" viewBox="0 0 16 17" fill="none" xmlns="http://www.w3.org/2000/svg">
<path d="M0.695974 4.00058H8.72556C8.87522 4.5276 9.20174 4.99283 9.65478 5.3245C10.1078 5.65617 10.6622 5.83587 11.2324 5.83587C11.8026 5.83587 12.357 5.65617 12.81 5.3245C13.2631 4.99283 13.5896 4.5276 13.7393 4.00058H15.2673C15.3587 4.00058 15.4492 3.98333 15.5337 3.94983C15.6181 3.91633 15.6948 3.86723 15.7595 3.80533C15.8241 3.74342 15.8754 3.66994 15.9103 3.58906C15.9453 3.50818 15.9633 3.42149 15.9633 3.33395C15.9633 3.24641 15.9453 3.15972 15.9103 3.07884C15.8754 2.99796 15.8241 2.92448 15.7595 2.86257C15.6948 2.80067 15.6181 2.75157 15.5337 2.71807C15.4492 2.68457 15.3587 2.66732 15.2673 2.66732H13.7335C13.5838 2.1403 13.2573 1.67507 12.8043 1.3434C12.3513 1.01172 11.7969 0.832031 11.2267 0.832031C10.6564 0.832031 10.1021 1.01172 9.64903 1.3434C9.19599 1.67507 8.86946 2.1403 8.71981 2.66732H0.695974C0.604577 2.66732 0.514076 2.68457 0.429636 2.71807C0.345197 2.75157 0.268473 2.80067 0.203846 2.86257C0.139219 2.92448 0.0879539 2.99796 0.0529779 3.07884C0.018002 3.15972 0 3.24641 0 3.33395C0 3.42149 0.018002 3.50818 0.0529779 3.58906C0.0879539 3.66994 0.139219 3.74342 0.203846 3.80533C0.268473 3.86723 0.345197 3.91633 0.429636 3.94983C0.514076 3.98333 0.604577 4.00058 0.695974 4.00058ZM11.241 2.16597C11.482 2.16743 11.7172 2.23725 11.9168 2.36663C12.1164 2.49602 12.2715 2.67915 12.3625 2.89291C12.4535 3.10666 12.4763 3.34146 12.4281 3.56763C12.3799 3.79381 12.2628 4.00123 12.0915 4.16369C11.9203 4.32615 11.7027 4.43637 11.4661 4.48043C11.2295 4.52449 10.9846 4.50041 10.7623 4.41124C10.54 4.32206 10.3503 4.17179 10.2171 3.97939C10.0839 3.787 10.0132 3.56112 10.014 3.33028C10.0147 3.17665 10.0471 3.02468 10.1091 2.88303C10.1712 2.74137 10.2618 2.61282 10.3758 2.50471C10.4897 2.39659 10.6248 2.31103 10.7732 2.25291C10.9217 2.19479 11.0807 2.16525 11.241 2.16597Z" fill="#282828"/>
<path d="M15.2673 8.17302H7.23583C7.08685 7.64566 6.7607 7.17997 6.30776 6.84792C5.85482 6.51587 5.30032 6.33594 4.72994 6.33594C4.15956 6.33594 3.60506 6.51587 3.15212 6.84792C2.69918 7.17997 2.37303 7.64566 2.22405 8.17302H0.695974C0.51139 8.17302 0.334367 8.24325 0.203846 8.36827C0.0733257 8.49329 0 8.66285 0 8.83965C0 9.01645 0.0733257 9.18601 0.203846 9.31102C0.334367 9.43604 0.51139 9.50628 0.695974 9.50628H2.2298C2.37878 10.0336 2.70493 10.4993 3.15787 10.8314C3.61081 11.1634 4.16531 11.3434 4.73569 11.3434C5.30607 11.3434 5.86057 11.1634 6.31351 10.8314C6.76645 10.4993 7.09261 10.0336 7.24158 9.50628H15.2673C15.4519 9.50628 15.6289 9.43604 15.7595 9.31102C15.89 9.18601 15.9633 9.01645 15.9633 8.83965C15.9633 8.66285 15.89 8.49329 15.7595 8.36827C15.6289 8.24325 15.4519 8.17302 15.2673 8.17302ZM4.72227 10.0076C4.48143 10.0062 4.24643 9.93644 4.04692 9.80722C3.8474 9.67801 3.6923 9.49509 3.60118 9.28155C3.51006 9.068 3.48701 8.8334 3.53492 8.60732C3.58283 8.38124 3.69957 8.17381 3.87041 8.0112C4.04124 7.84859 4.25853 7.73808 4.49485 7.69361C4.73118 7.64913 4.97597 7.67269 5.19834 7.7613C5.4207 7.84991 5.6107 7.99962 5.74435 8.19153C5.878 8.38344 5.94933 8.60896 5.94933 8.83965C5.94908 8.99358 5.91712 9.14595 5.85527 9.28803C5.79342 9.4301 5.7029 9.55909 5.58891 9.66759C5.47492 9.7761 5.33968 9.86199 5.19097 9.92034C5.04225 9.97869 4.88298 10.0083 4.72227 10.0076Z" fill="#282828"/>
<path d="M15.2673 13.679H13.7335C13.5838 13.152 13.2573 12.6868 12.8043 12.3551C12.3513 12.0234 11.7969 11.8438 11.2267 11.8438C10.6564 11.8438 10.1021 12.0234 9.64903 12.3551C9.19599 12.6868 8.86946 13.152 8.71981 13.679H0.695974C0.51139 13.679 0.334367 13.7493 0.203846 13.8743C0.0733257 13.9993 0 14.1689 0 14.3457C0 14.5225 0.0733257 14.692 0.203846 14.817C0.334367 14.9421 0.51139 15.0123 0.695974 15.0123H8.72556C8.87522 15.5393 9.20174 16.0045 9.65478 16.3362C10.1078 16.6679 10.6622 16.8476 11.2324 16.8476C11.8026 16.8476 12.357 16.6679 12.81 16.3362C13.2631 16.0045 13.5896 15.5393 13.7393 15.0123H15.2673C15.4519 15.0123 15.6289 14.9421 15.7595 14.817C15.89 14.692 15.9633 14.5225 15.9633 14.3457C15.9633 14.1689 15.89 13.9993 15.7595 13.8743C15.6289 13.7493 15.4519 13.679 15.2673 13.679ZM11.241 15.5155C10.9995 15.5169 10.7629 15.4496 10.5613 15.3221C10.3597 15.1946 10.2022 15.0126 10.1088 14.7992C10.0154 14.5858 9.99028 14.3506 10.0366 14.1235C10.083 13.8964 10.1987 13.6876 10.3691 13.5236C10.5395 13.3596 10.7569 13.2478 10.9938 13.2023C11.2307 13.1569 11.4763 13.1798 11.6996 13.2683C11.9228 13.3567 12.1135 13.5067 12.2476 13.6992C12.3817 13.8917 12.4531 14.1179 12.4528 14.3493C12.4508 14.6569 12.3226 14.9514 12.0959 15.1692C11.8692 15.387 11.5621 15.5108 11.241 15.5136V15.5155Z" fill="#282828"/>
</svg>
