<svg width="138" height="138" viewBox="0 0 138 138" fill="none" xmlns="http://www.w3.org/2000/svg">
<path d="M20.7827 114.913L23.1177 130.258H36.6831L39.8322 115.136L20.7827 114.913Z" fill="#EBEBEB"/>
<path d="M37.936 124.752C37.936 124.796 34.4584 124.832 30.1721 124.832C25.8858 124.832 22.4082 124.796 22.4082 124.752C22.4082 124.708 25.883 124.672 30.1721 124.672C34.4611 124.672 37.936 124.702 37.936 124.752Z" fill="#FAFAFA"/>
<path d="M37.9886 123.993C37.9886 124.037 34.4889 124.073 30.1723 124.073C25.8556 124.073 22.356 124.037 22.356 123.993C22.356 123.949 25.8556 123.913 30.1723 123.913C34.4889 123.913 37.9886 123.949 37.9886 123.993Z" fill="#FAFAFA"/>
<path d="M37.9608 123.14C37.9608 123.185 34.4611 123.22 30.1444 123.22C25.8278 123.22 22.3281 123.185 22.3281 123.14C22.3281 123.096 25.8278 123.06 30.1444 123.06C34.4611 123.06 37.9608 123.096 37.9608 123.14Z" fill="#FAFAFA"/>
<path d="M24.6767 129.381C24.4843 128.749 24.3449 128.103 24.2599 127.449C24.1201 126.804 24.0333 126.15 24.0005 125.492C24.1913 126.123 24.3307 126.77 24.4172 127.424C24.5538 128.068 24.6405 128.723 24.6767 129.381Z" fill="#FAFAFA"/>
<path d="M25.599 129.218C25.4601 127.963 25.3744 126.704 25.3423 125.442C25.4888 126.06 25.572 126.69 25.5907 127.324C25.6606 127.954 25.6633 128.588 25.599 129.218Z" fill="#FAFAFA"/>
<path d="M27.2798 129.218C26.9611 127.945 26.8081 126.636 26.8244 125.323C26.9529 125.962 27.0451 126.607 27.1004 127.255C27.2108 128.34 27.324 129.21 27.2798 129.218Z" fill="#FAFAFA"/>
<path d="M28.4607 129.301C28.3326 128.653 28.2698 127.995 28.273 127.335C28.2248 126.677 28.2451 126.016 28.3337 125.362C28.4045 126.016 28.4377 126.673 28.4331 127.33C28.4796 127.986 28.4889 128.644 28.4607 129.301Z" fill="#FAFAFA"/>
<path d="M30.5502 129.218C30.4514 128.602 30.4044 127.979 30.4094 127.355C30.3612 126.733 30.3667 126.108 30.4259 125.486C30.5722 126.724 30.6137 127.973 30.5502 129.218Z" fill="#FAFAFA"/>
<path d="M32.0793 129.301C32.0035 128.659 31.9813 128.013 32.0131 127.369C31.9929 126.723 32.0252 126.077 32.1097 125.437C32.1836 126.078 32.2048 126.724 32.1731 127.369C32.1932 128.014 32.1618 128.66 32.0793 129.301Z" fill="#FAFAFA"/>
<path d="M33.5088 129.094C33.4944 128.42 33.5331 127.746 33.6247 127.079C33.6658 126.407 33.7581 125.739 33.9007 125.081C33.8761 126.426 33.746 127.768 33.5115 129.094H33.5088Z" fill="#FAFAFA"/>
<path d="M35.3555 128.892C35.4153 127.738 35.6623 126.6 36.0869 125.525C36.0038 126.093 35.8877 126.656 35.7391 127.211C35.6415 127.778 35.5134 128.339 35.3555 128.892Z" fill="#FAFAFA"/>
<path d="M34.05 84.6355L34.0334 84.7128C34.0141 84.7707 33.9948 84.8397 33.9699 84.9281L33.7105 85.7561C33.5946 86.1149 33.4566 86.5537 33.313 87.0698C33.1695 87.5859 32.9846 88.1738 32.8245 88.8197C32.6644 89.4655 32.4657 90.1831 32.2946 90.9559C32.1235 91.7287 31.9496 92.5539 31.773 93.4261C31.4473 95.1759 31.1492 97.1107 30.945 99.1531C30.7407 101.195 30.669 103.152 30.6303 104.93C30.6303 105.821 30.6303 106.666 30.6524 107.458C30.6745 108.25 30.7104 108.984 30.749 109.666C30.7876 110.348 30.8428 110.947 30.8842 111.479C30.9256 112.012 30.9698 112.47 31.014 112.845C31.0581 113.221 31.083 113.497 31.1023 113.707C31.1023 113.798 31.1188 113.872 31.1216 113.933C31.1258 113.958 31.1258 113.985 31.1216 114.01C31.1124 113.985 31.1068 113.959 31.105 113.933C31.105 113.875 31.083 113.8 31.0692 113.712C31.0388 113.502 31.0002 113.215 30.9505 112.851C30.9008 112.487 30.8401 112.023 30.7932 111.488C30.7462 110.952 30.6717 110.348 30.6331 109.674C30.5944 109.001 30.5392 108.264 30.5199 107.466C30.5006 106.669 30.484 105.827 30.4785 104.935C30.4978 103.152 30.5862 101.193 30.7849 99.1393C30.9836 97.0859 31.2955 95.1539 31.6294 93.4013C31.8116 92.5291 31.9744 91.6956 32.1814 90.9173C32.3884 90.1389 32.5485 89.4296 32.7334 88.781C32.9184 88.1324 33.0922 87.5473 33.2468 87.0339C33.4014 86.5206 33.5449 86.0845 33.6718 85.7285C33.7988 85.3724 33.8871 85.1102 33.9478 84.9005C33.9782 84.8149 34.003 84.7459 34.0251 84.6907C34.0313 84.6714 34.0397 84.6529 34.05 84.6355Z" fill="#EBEBEB"/>
<path d="M31.5991 94.1382C31.9728 93.0317 32.7191 92.0893 33.7105 91.4721C34.0445 91.2651 34.4695 91.0967 34.8145 91.2678C35.2865 91.4969 35.3251 92.1621 35.1844 92.6699C34.9402 93.5287 34.3956 94.2712 33.6498 94.762C32.9881 95.2515 32.1598 95.4598 31.3452 95.3416" fill="#EBEBEB"/>
<path d="M30.7765 100.552C31.127 99.2275 32.1841 97.3452 33.2798 96.5255C33.4476 96.388 33.6408 96.2849 33.8484 96.2219C33.9532 96.1926 34.0635 96.1894 34.1698 96.2125C34.2761 96.2356 34.3751 96.2843 34.4583 96.3544C34.6819 96.5696 34.6598 96.9312 34.5936 97.232C34.3689 98.1983 33.8796 99.0828 33.1806 99.7867C32.4815 100.491 31.6004 100.986 30.6357 101.217" fill="#EBEBEB"/>
<path d="M30.5503 106.199C31.0941 104.934 31.9659 103.838 33.0757 103.023C33.1943 102.914 33.3332 102.831 33.4843 102.777C33.6355 102.723 33.7959 102.7 33.9561 102.708C34.4364 102.796 34.6544 103.381 34.6103 103.867C34.5247 104.866 33.7602 105.667 32.9736 106.288C32.1263 106.956 30.6359 107.488 30.6359 107.488" fill="#EBEBEB"/>
<path d="M30.6772 110.259C31.2055 109.295 31.9396 108.46 32.8273 107.811C33.0176 107.671 33.2376 107.577 33.4704 107.535C33.5876 107.514 33.7084 107.525 33.8198 107.567C33.9312 107.61 34.0289 107.682 34.1024 107.775C34.3177 108.093 34.1024 108.521 33.8816 108.824C33.1252 109.881 32.0509 110.67 30.8152 111.074" fill="#EBEBEB"/>
<path d="M30.5697 108.612C29.6448 107.475 28.6164 106.426 27.4978 105.479C27.3212 105.333 27.1031 105.178 26.8851 105.247C26.8041 105.282 26.7349 105.34 26.686 105.413C26.637 105.487 26.6103 105.573 26.6091 105.661C26.6058 105.839 26.6455 106.015 26.725 106.175C27.0921 106.991 27.6386 107.714 28.3238 108.291C29.009 108.867 29.8154 109.281 30.6828 109.503" fill="#EBEBEB"/>
<path d="M30.6687 103.326L28.2537 100.384C28.0424 100.087 27.7763 99.8334 27.4698 99.6362C27.3146 99.5421 27.1366 99.4924 26.9551 99.4924C26.7736 99.4924 26.5956 99.5421 26.4404 99.6362C26.3007 99.7516 26.1958 99.9036 26.1374 100.075C26.0789 100.247 26.0691 100.431 26.1092 100.608C26.1975 100.957 26.3583 101.285 26.5811 101.568C27.051 102.291 27.6464 102.924 28.3392 103.437C29.0486 103.925 29.6944 104.243 30.5472 104.116" fill="#EBEBEB"/>
<path d="M31.0029 97.3785C30.5299 95.9699 29.6918 94.7118 28.5741 93.7326C28.3998 93.5557 28.1817 93.4281 27.9421 93.3627C27.4563 93.2689 26.9899 93.6746 26.8381 94.1411C26.7622 94.4082 26.7426 94.6882 26.7806 94.9633C26.8186 95.2384 26.9134 95.5026 27.0589 95.7391C27.3547 96.2106 27.7412 96.6187 28.196 96.9397C29.0088 97.5619 29.9152 98.051 30.8815 98.3887" fill="#EBEBEB"/>
<path d="M31.9686 92.0766C31.734 90.3709 30.8453 88.9495 29.8158 87.5695C29.6006 87.2769 29.297 86.9706 28.9382 87.0175C28.8249 87.0419 28.7195 87.0944 28.6318 87.1701C28.544 87.2458 28.4766 87.3423 28.4358 87.4508C28.3553 87.6685 28.3224 87.901 28.3392 88.1325C28.3838 89.1665 28.7319 90.1644 29.34 91.0017C29.9482 91.8391 30.7895 92.4788 31.7589 92.8411" fill="#EBEBEB"/>
<path d="M32.6453 89.3688C32.5332 88.494 32.5037 87.6106 32.557 86.7303C32.611 85.8445 32.9143 84.992 33.4319 84.2711C33.6537 83.9611 33.9577 83.7193 34.3096 83.5728C34.4861 83.502 34.678 83.4779 34.8666 83.5031C35.0552 83.5282 35.2341 83.6017 35.386 83.7164C35.5142 83.8366 35.6137 83.9841 35.6772 84.1479C35.7408 84.3118 35.7667 84.4878 35.753 84.663C35.7219 85.0135 35.6284 85.3556 35.477 85.6732C34.834 87.2216 33.7631 88.9355 32.6425 89.3688" fill="#EBEBEB"/>
<path d="M22.1269 91.4031C22.1334 91.4747 22.1334 91.5467 22.1269 91.6184C22.1269 91.7757 22.1269 91.9827 22.1269 92.2366C22.1269 92.4905 22.1269 92.8355 22.1434 93.2164C22.16 93.5973 22.1434 94.0444 22.1876 94.5136C22.2317 95.4713 22.3228 96.614 22.4636 97.8753C22.6043 99.1366 22.8362 100.514 23.1315 101.949C23.4268 103.384 23.7939 104.734 24.1582 105.951C24.5225 107.168 24.9034 108.247 25.2622 109.142C25.4278 109.594 25.5989 109.994 25.7397 110.348C25.8805 110.701 26.0157 111.005 26.1206 111.25C26.2255 111.496 26.3 111.675 26.3635 111.822C26.3946 111.886 26.4195 111.954 26.438 112.023C26.3963 111.963 26.3612 111.9 26.3331 111.833L26.0571 111.281C25.9412 111.038 25.8004 110.729 25.6541 110.389C25.5079 110.05 25.3229 109.638 25.1518 109.189C24.7903 108.297 24.4066 107.215 24.023 105.998C23.6393 104.781 23.2888 103.426 22.9825 101.988C22.6761 100.55 22.4912 99.1559 22.3559 97.8918C22.2207 96.6278 22.1379 95.4796 22.1103 94.5164C22.0855 94.0361 22.091 93.6 22.0855 93.2192C22.0799 92.8383 22.0855 92.5071 22.0855 92.2366C22.0855 91.9661 22.102 91.7757 22.1075 91.6184C22.1055 91.5461 22.112 91.4738 22.1269 91.4031Z" fill="#E0E0E0"/>
<path d="M22.5049 98.3968C22.5204 97.5645 22.8248 96.7634 23.366 96.1309C23.4446 96.0135 23.551 95.9173 23.6757 95.8508C23.8004 95.7844 23.9395 95.7497 24.0808 95.75C24.4534 95.8052 24.6328 96.2496 24.6328 96.6249C24.6523 97.2623 24.4416 97.8854 24.0394 98.3803C23.6925 98.8538 23.1747 99.1736 22.596 99.2718" fill="#E0E0E0"/>
<path d="M23.3243 102.948C23.2774 101.971 23.6003 100.464 24.1523 99.6692C24.2365 99.5381 24.3463 99.4255 24.4752 99.338C24.5404 99.2957 24.6149 99.2698 24.6923 99.2626C24.7697 99.2554 24.8477 99.267 24.9196 99.2966C25.0088 99.362 25.0807 99.4483 25.1288 99.5479C25.1769 99.6475 25.1998 99.7574 25.1956 99.8679C25.2502 100.574 25.1071 101.281 24.7824 101.911C24.4578 102.54 23.9644 103.066 23.3574 103.431" fill="#E0E0E0"/>
<path d="M24.3843 106.837C24.4827 105.858 24.841 104.923 25.422 104.129C25.4783 104.031 25.5533 103.945 25.6428 103.876C25.7323 103.807 25.8345 103.756 25.9437 103.726C26.2887 103.682 26.5619 104.036 26.6364 104.375C26.7938 105.073 26.446 105.783 26.043 106.373C25.6577 106.87 25.2096 107.314 24.71 107.695" fill="#E0E0E0"/>
<path d="M25.3447 109.572C25.4961 108.802 25.8166 108.075 26.2831 107.444C26.3809 107.305 26.5094 107.191 26.6585 107.11C26.7338 107.07 26.8187 107.052 26.9038 107.056C26.989 107.061 27.0712 107.089 27.1415 107.138C27.3568 107.306 27.3098 107.64 27.216 107.9C26.928 108.782 26.3663 109.549 25.6124 110.091" fill="#E0E0E0"/>
<path d="M24.917 108.468C24.0441 107.894 23.1202 107.402 22.157 106.997C22.0873 106.955 22.0083 106.93 21.9269 106.926C21.8455 106.922 21.7643 106.938 21.6906 106.972C21.6423 107.013 21.607 107.067 21.5889 107.128C21.5708 107.189 21.5706 107.254 21.5884 107.314C21.6256 107.435 21.6898 107.545 21.7761 107.637C22.202 108.114 22.7297 108.489 23.3203 108.734C23.9109 108.979 24.549 109.088 25.1875 109.053" fill="#E0E0E0"/>
<path d="M23.8491 104.855L21.5694 103.371C21.3616 103.216 21.1266 103.102 20.8766 103.034C20.7511 103.002 20.6191 103.004 20.495 103.042C20.371 103.079 20.2595 103.15 20.1728 103.246C20.1025 103.355 20.0636 103.481 20.0607 103.611C20.0578 103.741 20.0909 103.869 20.1563 103.98C20.2933 104.199 20.4737 104.387 20.6862 104.532C21.161 104.925 21.7035 105.227 22.287 105.424C22.8749 105.606 23.391 105.681 23.943 105.424" fill="#E0E0E0"/>
<path d="M22.7972 100.74C22.1711 99.8823 21.3294 99.2053 20.3574 98.7776C20.2 98.696 20.0239 98.657 19.8468 98.6645C19.6746 98.7036 19.5216 98.8018 19.4142 98.9419C19.3069 99.0821 19.2519 99.2554 19.2589 99.4318C19.2662 99.6285 19.3138 99.8216 19.3988 99.9991C19.4838 100.177 19.6043 100.335 19.7529 100.464C20.0556 100.721 20.4065 100.915 20.7852 101.035C21.4723 101.283 22.194 101.422 22.9242 101.447" fill="#E0E0E0"/>
<path d="M22.3118 96.9148C21.7846 95.8108 20.8738 95.0269 19.8775 94.3093C19.7843 94.2188 19.6689 94.1544 19.543 94.1224C19.4171 94.0905 19.285 94.0921 19.1599 94.1272C19.0887 94.1689 19.0289 94.2275 18.9856 94.2978C18.9423 94.368 18.9168 94.4478 18.9115 94.5301C18.9036 94.6959 18.9309 94.8614 18.9915 95.0159C19.2458 95.7101 19.6984 96.3143 20.2931 96.7534C20.8878 97.1926 21.5984 97.4474 22.3366 97.4861" fill="#E0E0E0"/>
<path d="M22.1875 94.9247C21.9228 94.3534 21.7131 93.7582 21.561 93.1472C21.4072 92.5333 21.4302 91.8884 21.6272 91.287C21.7126 91.0271 21.8695 90.7966 22.0799 90.6218C22.1851 90.5358 22.3107 90.4782 22.4445 90.4545C22.5784 90.4309 22.716 90.4419 22.8444 90.4866C22.9555 90.5401 23.0535 90.6173 23.1317 90.7126C23.2099 90.808 23.2663 90.9192 23.297 91.0386C23.3523 91.284 23.3635 91.5373 23.3302 91.7866C23.2253 92.9789 22.8637 94.3754 22.193 94.9109" fill="#E0E0E0"/>
<path d="M39.2775 91.2539C39.2906 91.3249 39.2971 91.397 39.2968 91.4692C39.2968 91.6265 39.2968 91.8307 39.3189 92.0874C39.341 92.3441 39.3355 92.6863 39.3189 93.07C39.3024 93.4536 39.3189 93.898 39.2968 94.3672C39.2692 95.3304 39.1864 96.4758 39.0484 97.7427C38.9104 99.0095 38.6896 100.392 38.3916 101.833C38.0935 103.274 37.7209 104.626 37.3483 105.846C36.9757 107.066 36.581 108.142 36.2194 109.034C36.0483 109.484 35.8689 109.881 35.7199 110.234C35.5708 110.588 35.4439 110.886 35.3142 111.126C35.1844 111.366 35.1127 111.543 35.0382 111.678C35.0084 111.743 34.9743 111.805 34.936 111.866C34.9528 111.796 34.9779 111.728 35.0106 111.664C35.0713 111.518 35.1513 111.33 35.2534 111.093C35.3556 110.855 35.4908 110.541 35.6316 110.19C35.7723 109.84 35.9462 109.437 36.109 108.984C36.4568 108.09 36.8294 107.008 37.213 105.794C37.5967 104.579 37.9334 103.227 38.237 101.792C38.5406 100.356 38.7504 98.9764 38.9049 97.7178C39.0595 96.4593 39.145 95.3166 39.1809 94.3561C39.2113 93.8759 39.214 93.4426 39.2278 93.0589C39.2416 92.6753 39.2444 92.3496 39.2278 92.0791C39.2113 91.8087 39.2278 91.6182 39.2278 91.4609C39.2371 91.3903 39.2537 91.321 39.2775 91.2539Z" fill="#EBEBEB"/>
<path d="M38.8993 98.2562C38.8831 97.4235 38.5777 96.6224 38.0354 95.9903C37.9565 95.8732 37.85 95.7772 37.7254 95.7108C37.6008 95.6444 37.4618 95.6096 37.3206 95.6094C36.948 95.6646 36.7686 96.1089 36.7686 96.4843C36.751 97.1219 36.9625 97.7447 37.3648 98.2397C37.7099 98.7152 38.2285 99.0355 38.8082 99.1311" fill="#EBEBEB"/>
<path d="M38.0879 102.794C38.132 101.817 37.8119 100.31 37.2599 99.5147C37.1757 99.3836 37.0659 99.2709 36.937 99.1835C36.8723 99.1411 36.7982 99.1152 36.7213 99.108C36.6443 99.1008 36.5668 99.1125 36.4954 99.1421C36.4058 99.2071 36.3337 99.2933 36.2855 99.393C36.2374 99.4927 36.2146 99.6028 36.2194 99.7134C36.1636 100.419 36.3058 101.127 36.63 101.756C36.9543 102.386 37.4477 102.912 38.0548 103.277" fill="#EBEBEB"/>
<path d="M37.017 106.688C36.9179 105.71 36.5607 104.775 35.982 103.98C35.9243 103.881 35.8475 103.795 35.7561 103.726C35.6646 103.656 35.5604 103.606 35.4493 103.577C35.1043 103.533 34.8311 103.887 34.7538 104.226C34.5993 104.924 34.947 105.634 35.3472 106.224C35.7325 106.721 36.1806 107.165 36.6803 107.546" fill="#EBEBEB"/>
<path d="M36.0565 109.426C35.9055 108.655 35.586 107.928 35.1209 107.295C35.0223 107.156 34.8929 107.042 34.7427 106.961C34.6674 106.921 34.5825 106.903 34.4974 106.907C34.4122 106.912 34.33 106.94 34.2597 106.989C34.0472 107.157 34.0941 107.491 34.1852 107.751C34.4732 108.633 35.0349 109.401 35.7888 109.942" fill="#EBEBEB"/>
<path d="M36.4843 108.325C37.3579 107.752 38.2817 107.259 39.2443 106.854C39.3143 106.812 39.3932 106.788 39.4745 106.784C39.5558 106.779 39.6368 106.795 39.7108 106.829C39.7601 106.869 39.7963 106.923 39.815 106.984C39.8336 107.045 39.8339 107.11 39.8157 107.171C39.7768 107.291 39.7118 107.402 39.6252 107.494C39.1996 107.971 38.6719 108.346 38.0813 108.592C37.4906 108.837 36.8523 108.945 36.2139 108.91" fill="#EBEBEB"/>
<path d="M37.5553 104.706L39.8323 103.221C40.0404 103.067 40.2753 102.953 40.525 102.885C40.6506 102.852 40.7825 102.855 40.9066 102.893C41.0307 102.93 41.1421 103.001 41.2288 103.097C41.2998 103.206 41.339 103.332 41.3419 103.462C41.3448 103.592 41.3114 103.72 41.2454 103.831C41.1098 104.051 40.9292 104.239 40.7155 104.383C40.2407 104.775 39.6994 105.078 39.1174 105.278C38.5295 105.457 38.0134 105.534 37.4614 105.278" fill="#EBEBEB"/>
<path d="M38.6068 100.586C39.2331 99.7281 40.0747 99.0511 41.0466 98.6232C41.2038 98.541 41.38 98.5019 41.5572 98.5101C41.7288 98.5498 41.8812 98.6482 41.988 98.7883C42.0949 98.9284 42.1494 99.1013 42.1423 99.2774C42.1375 99.4757 42.091 99.6709 42.0059 99.8501C41.9208 100.029 41.799 100.189 41.6483 100.318C41.3459 100.575 40.9962 100.77 40.6188 100.892C39.9306 101.139 39.2079 101.277 38.4771 101.3" fill="#EBEBEB"/>
<path d="M39.0897 96.7657C39.6168 95.6617 40.5276 94.8806 41.5267 94.1603C41.7365 94.0085 42.0097 93.865 42.2416 93.9781C42.317 94.019 42.3807 94.0785 42.4266 94.151C42.4725 94.2234 42.4991 94.3065 42.5038 94.3921C42.5093 94.558 42.4812 94.7232 42.421 94.8779C42.1678 95.5723 41.7159 96.1767 41.1216 96.616C40.5272 97.0553 39.8167 97.3099 39.0786 97.3481" fill="#EBEBEB"/>
<path d="M39.2137 94.7785C39.4773 94.2064 39.688 93.6115 39.843 93.001C39.9946 92.3858 39.9707 91.7404 39.774 91.138C39.6902 90.8788 39.5353 90.6483 39.3269 90.4728C39.2223 90.3866 39.0971 90.329 38.9636 90.3057C38.83 90.2825 38.6927 90.2945 38.5651 90.3404C38.4528 90.3925 38.3535 90.4691 38.2747 90.5646C38.1959 90.6602 38.1395 90.7722 38.1097 90.8924C38.0562 91.138 38.045 91.3909 38.0766 91.6403C38.1815 92.8327 38.5431 94.2292 39.2137 94.7674" fill="#EBEBEB"/>
<path d="M19.2261 111.874V114.747C19.2261 114.896 19.2554 115.043 19.3123 115.18C19.3692 115.317 19.4526 115.442 19.5577 115.546C19.6628 115.651 19.7876 115.734 19.9248 115.791C20.0621 115.847 20.2092 115.876 20.3577 115.876H40.0006C40.3 115.876 40.5871 115.757 40.7988 115.545C41.0105 115.334 41.1294 115.047 41.1294 114.747V111.874H19.2261Z" fill="#EBEBEB"/>
<path d="M20.9287 115.876L21.0915 116.79L39.2165 118.081L39.6774 115.876H20.9287Z" fill="#E0E0E0"/>
<path d="M24.1886 46.1141L20.0486 44.414C20.0486 44.414 18.6189 47.8888 14.984 46.4646C14.2779 46.2044 13.6708 45.7302 13.2472 45.1083C12.8237 44.4863 12.6049 43.7476 12.6214 42.9953C12.6254 42.3632 12.779 41.7411 13.0697 41.1798C13.3604 40.6185 13.78 40.134 14.294 39.7661C15.4697 38.8967 17.4873 38.3613 20.0734 40.0007L23.8629 30.7878L19.7698 29.1042L17.5232 34.569C17.5232 34.569 11.1752 33.6941 8.57803 40.0173C6.09403 46.0672 11.1503 49.7904 13.9738 50.9524C15.754 51.681 21.2657 53.4474 24.1886 46.1141Z" fill="#F5F5F5"/>
<path d="M22.1084 23.2868L20.5142 27.1643L24.6673 28.8719L26.2616 24.9944L22.1084 23.2868Z" fill="#F5F5F5"/>
<path d="M22.7863 45.5402L18.6463 43.84C18.6463 43.84 17.2166 47.3121 13.5817 45.8907C12.8759 45.6301 12.269 45.1558 11.8455 44.5339C11.422 43.9121 11.203 43.1736 11.2192 42.4214C11.2232 41.789 11.3772 41.1666 11.6684 40.6052C11.9596 40.0439 12.3798 39.5596 12.8945 39.1922C14.0702 38.3228 16.0409 37.9032 18.627 39.5427L22.4634 30.2139L18.3731 28.5303L16.1264 33.9951C16.1264 33.9951 9.77845 33.1202 7.17577 39.435C4.69177 45.485 9.53833 49.1282 11.8678 50.0748C13.6369 50.8062 19.8718 52.8624 22.7863 45.5402Z" fill="#E0E0E0"/>
<path d="M20.708 22.7033L19.1138 26.5808L23.267 28.2884L24.8612 24.4109L20.708 22.7033Z" fill="#E0E0E0"/>
<path d="M122.094 116.922L119.53 117.135C119.53 117.135 119.709 119.287 117.474 119.514C117.043 119.564 116.608 119.48 116.228 119.272C115.847 119.065 115.541 118.744 115.351 118.354C115.186 118.03 115.101 117.672 115.101 117.308C115.101 116.945 115.186 116.586 115.351 116.262C115.726 115.509 116.621 114.706 118.373 114.866L117.901 109.153L115.362 109.365L115.638 112.752C115.638 112.752 112.158 113.969 112.483 117.888C112.795 121.639 116.364 122.221 118.114 122.075C119.232 121.992 122.519 121.44 122.094 116.922Z" fill="#F5F5F5"/>
<path d="M117.732 106.245L115.148 106.452L115.341 108.864L117.925 108.658L117.732 106.245Z" fill="#F5F5F5"/>
<path d="M121.225 116.988L118.658 117.203C118.658 117.203 118.837 119.356 116.602 119.58C116.172 119.632 115.737 119.548 115.357 119.341C114.977 119.134 114.671 118.813 114.482 118.423C114.317 118.099 114.232 117.741 114.232 117.377C114.232 117.014 114.317 116.655 114.482 116.331C114.857 115.578 115.757 114.846 117.518 115.006L117.038 109.21L114.501 109.423L114.777 112.809C114.777 112.809 111.297 114.024 111.623 117.946C111.934 121.697 115.371 122.29 116.809 122.169C117.918 122.089 121.65 121.512 121.225 116.988Z" fill="#E0E0E0"/>
<path d="M116.75 105.621L114.175 105.835L114.375 108.239L116.95 108.025L116.75 105.621Z" fill="#E0E0E0"/>
<path d="M107.193 23.8768L112.274 21.8703C112.274 21.8703 110.588 17.6033 114.993 15.7762C115.835 15.4086 116.772 15.3131 117.671 15.5031C118.571 15.6931 119.388 16.1591 120.01 16.8361C120.541 17.3949 120.932 18.0711 121.152 18.8098C121.371 19.5484 121.413 20.3285 121.274 21.0865C120.974 22.8474 119.651 25.0278 115.989 25.7785L120.457 37.0945L125.483 35.11L122.82 28.395C122.82 28.395 129.168 23.7913 126.093 16.0246C123.157 8.59471 115.55 9.60211 112.081 10.9738C109.9 11.8349 103.555 14.9482 107.193 23.8768Z" fill="#F5F5F5"/>
<path d="M126.476 37.4448L121.375 39.4592L123.256 44.2211L128.356 42.2068L126.476 37.4448Z" fill="#F5F5F5"/>
<path d="M105.156 24.6773L110.24 22.6707C110.24 22.6707 108.553 18.4038 112.958 16.5767C113.8 16.2081 114.736 16.1113 115.635 16.2998C116.535 16.4882 117.353 16.9526 117.976 17.6282C118.507 18.1883 118.899 18.866 119.119 19.606C119.338 20.3461 119.38 21.1277 119.24 21.8869C118.956 23.6478 117.576 25.6847 113.905 26.4354L118.431 37.8921L123.455 35.9077L120.805 29.1954C120.805 29.1954 127.134 24.5917 124.065 16.8361C121.131 9.3841 113.786 10.3004 110.933 11.4265C108.744 12.2876 101.529 15.7487 105.156 24.6773Z" fill="#E0E0E0"/>
<path d="M124.449 38.2434L119.349 40.2578L121.229 45.0197L126.33 43.0053L124.449 38.2434Z" fill="#E0E0E0"/>
<path d="M65.9798 17.9269C66.4474 12.6567 62.5455 8.00457 57.2647 7.53606C51.9839 7.06755 47.3239 10.9601 46.8564 16.2302C46.3888 21.5004 50.2907 26.1525 55.5715 26.621C60.8523 27.0895 65.5123 23.197 65.9798 17.9269Z" fill="white"/>
<path d="M62.5827 24.4288L62.7013 24.3295L63.0381 24.0121L63.2865 23.783C63.3748 23.6974 63.4631 23.5926 63.5625 23.4822L63.8799 23.1289C63.9957 22.991 64.1044 22.8473 64.2055 22.6983C64.7593 21.9515 65.1949 21.1239 65.4972 20.2447C65.9102 19.0822 66.093 17.8504 66.0354 16.618C66.0354 16.4469 66.0161 16.273 66.0078 16.0992C65.9995 15.9253 65.9554 15.7514 65.9305 15.572C65.9057 15.3926 65.8864 15.216 65.8395 15.0393C65.7925 14.8627 65.7484 14.6833 65.7042 14.4873L65.5469 13.9767V13.9464C65.4834 13.767 65.4172 13.5848 65.3537 13.3944C65.2902 13.2039 65.1881 13.0411 65.1053 12.8617C65.025 12.6783 64.9328 12.5004 64.8293 12.329C64.6278 11.9722 64.4029 11.6292 64.1559 11.3023C64.0289 11.1394 63.9102 10.9656 63.7722 10.8055L63.1788 10.1624L63.1153 10.1017L62.8725 9.88641C62.7069 9.74565 62.5468 9.59385 62.3757 9.45585C62.0239 9.18423 61.6551 8.93532 61.2717 8.71065C60.8765 8.47993 60.4661 8.27615 60.0435 8.10069C59.8254 8.01513 59.6019 7.94889 59.3811 7.86885C59.2707 7.83573 59.1603 7.78881 59.0471 7.76121L58.6828 7.72809C58.3109 7.63325 57.9328 7.565 57.5512 7.52385L56.9743 7.45209L56.3533 7.42725H56.1712L55.8013 7.44657L55.4315 7.46865L55.0644 7.52109L54.6946 7.57905L54.5097 7.60665L54.3275 7.65081L52.9723 8.06205L52.8785 8.09517C51.9204 8.48338 51.0262 9.01373 50.2261 9.66837C49.4405 10.3416 48.7612 11.1297 48.2113 12.0061L48.1672 12.0834C47.9905 12.4339 47.7007 13.0052 47.5213 13.3557L47.4468 13.5268L47.3861 13.7035L47.2647 14.0761L47.146 14.4294L47.0632 14.7909L46.9776 15.1497L46.9362 15.3291L46.8534 15.9446L46.801 16.5214C46.7734 16.9037 46.7734 17.2874 46.801 17.6696L46.8203 18.0229C46.8203 18.1416 46.8534 18.2575 46.8672 18.3734C46.9059 18.6052 46.9335 18.8371 46.9804 19.0634C47.0773 19.5116 47.2055 19.9524 47.364 20.3827C47.522 20.8033 47.7064 21.2135 47.916 21.6109C48.0209 21.8041 48.1423 21.9862 48.2527 22.1629L48.4211 22.4389L48.4708 22.5106L48.9979 23.2062C49.1332 23.3718 49.2739 23.518 49.423 23.6726C49.7007 23.9688 49.9986 24.2455 50.3145 24.5006C50.4635 24.6381 50.6202 24.7671 50.7837 24.887C50.9465 24.9974 51.1011 25.1188 51.2667 25.221L51.769 25.5108L52.2658 25.7647L52.7736 25.991C52.9405 26.0616 53.1109 26.1233 53.2842 26.1759C53.4526 26.2311 53.6209 26.2918 53.7865 26.3415L54.2944 26.4602C55.4979 26.7317 56.7426 26.7674 57.9597 26.5651C58.8782 26.4207 59.7691 26.1359 60.601 25.7205C60.7655 25.6476 60.9258 25.5656 61.0812 25.4749L61.4842 25.2265C61.6084 25.1492 61.7271 25.0802 61.8292 25.0112L62.1052 24.8042L62.464 24.5282C62.5468 24.4647 62.5854 24.4288 62.5854 24.4288L62.4585 24.5199L62.0914 24.7959C62.0086 24.8539 61.9203 24.9229 61.8154 24.9946C61.7105 25.0664 61.5946 25.1299 61.4704 25.2072L61.0647 25.45C60.9079 25.5383 60.7467 25.6185 60.5817 25.6902C59.7532 26.0893 58.8693 26.361 57.9597 26.4961C56.7506 26.6895 55.5155 26.6482 54.322 26.3746L53.8197 26.2642C53.6513 26.2146 53.4885 26.1538 53.3201 26.0986C53.1517 26.0434 52.9779 25.9938 52.815 25.9137L52.3127 25.6874L51.838 25.4445H51.8159L51.3219 25.1685C51.1563 25.0664 51.0045 24.945 50.8444 24.8346C50.6799 24.7247 50.5223 24.6049 50.3724 24.4758C50.06 24.2206 49.7658 23.944 49.492 23.6478C49.354 23.496 49.216 23.3497 49.0725 23.1868L48.5508 22.4941C48.5336 22.4722 48.5179 22.4491 48.5039 22.4251L48.3355 22.1491C48.2279 21.9642 48.1065 21.7848 48.0043 21.5971C47.8015 21.2043 47.6244 20.7986 47.4744 20.3827C47.3148 19.9462 47.1866 19.4989 47.0908 19.0441C47.0439 18.8205 47.019 18.5914 46.9804 18.3624C46.9666 18.2464 46.939 18.1333 46.9335 18.0174L46.9197 17.6641C46.8894 17.1908 46.8894 16.716 46.9197 16.2427C46.9528 16.0053 46.9859 15.768 47.0163 15.5278L47.0411 15.3484L47.0825 15.1718L47.1653 14.8185L47.2509 14.4597L47.3668 14.112L47.4855 13.7614L47.5462 13.5876L47.6207 13.4164L48.2693 12.1441L48.3107 12.0751C49.3847 10.319 51.0033 8.96204 52.9199 8.21109L53.0082 8.17797L54.3523 7.77225L54.5317 7.72533L54.7139 7.69773L55.081 7.64253L55.4425 7.58733L55.8096 7.56801L56.1739 7.54869H56.3561H56.5355L57.2559 7.57629C57.7272 7.6249 58.1947 7.70512 58.6552 7.81641L58.9974 7.89645C59.1106 7.92129 59.2182 7.96821 59.3286 8.00133C59.5467 8.07861 59.7702 8.14485 59.9827 8.22765C60.4017 8.40127 60.8084 8.60322 61.1999 8.83209C61.584 9.05167 61.9529 9.29695 62.3039 9.56625C62.475 9.70149 62.6323 9.84225 62.7952 9.99129L63.0381 10.2038L63.0988 10.2618L63.6867 10.8966C63.8247 11.0539 63.9433 11.2278 64.0703 11.3878C64.3151 11.7171 64.5382 12.0619 64.7382 12.4201C64.8395 12.5908 64.9317 12.7667 65.0142 12.9472C65.0943 13.1239 65.1881 13.295 65.2599 13.4744L65.4531 14.0126C65.4862 14.1009 65.5193 14.1892 65.5497 14.2886V14.3134C65.6159 14.5756 65.6821 14.8351 65.7484 15.089C65.7981 15.2656 65.8091 15.445 65.8422 15.6189C65.8753 15.7928 65.8974 15.9694 65.9195 16.1406C65.9416 16.3117 65.9388 16.4856 65.9471 16.6539C66.0097 17.8766 65.8344 19.0998 65.431 20.2557C65.1354 21.1313 64.7082 21.9568 64.1641 22.7038C64.0482 22.8556 63.9599 23.013 63.844 23.1372L63.5349 23.4601C63.4383 23.5705 63.3527 23.6754 63.2589 23.7637L63.016 23.9955L62.6848 24.3074C62.6185 24.3902 62.5827 24.4288 62.5827 24.4288Z" fill="#E0E0E0"/>
<path d="M64.6002 29.717C64.4404 29.929 64.2293 30.0968 63.9868 30.2047C63.7443 30.3126 63.4783 30.3571 63.2139 30.3339C62.9495 30.3107 62.6953 30.2207 62.4753 30.0722C62.2552 29.9237 62.0766 29.7217 61.9561 29.4852C61.8235 29.2261 61.7666 28.9348 61.792 28.6448C61.8174 28.3548 61.924 28.0779 62.0996 27.8457C62.3521 27.5264 62.7193 27.3182 63.1231 27.2656C63.5268 27.2129 63.9351 27.32 64.261 27.5639C64.587 27.8078 64.8048 28.1694 64.8682 28.5715C64.9315 28.9737 64.8354 29.3847 64.6002 29.717Z" fill="white"/>
<path d="M64.3517 29.9764C64.3517 29.9764 64.382 29.9599 64.4317 29.9185C64.5058 29.8565 64.5725 29.7861 64.6304 29.7087C64.813 29.4647 64.9213 29.1732 64.9423 28.8692C64.9634 28.5652 64.8963 28.2616 64.7491 27.9948C64.6088 27.7432 64.404 27.5336 64.1557 27.3876C63.8813 27.2244 63.5634 27.1493 63.2449 27.1723C62.9015 27.1912 62.5733 27.3207 62.3097 27.5416C62.046 27.7625 61.8609 28.0629 61.7821 28.3977C61.7059 28.7078 61.7241 29.0337 61.8346 29.3334C61.9351 29.6031 62.1056 29.8412 62.3286 30.0234C62.523 30.1805 62.7519 30.2893 62.9965 30.3408C63.3486 30.4175 63.7163 30.3697 64.037 30.2055C64.1239 30.1632 64.2047 30.1094 64.2772 30.0454C64.3296 30.004 64.3544 29.9792 64.3517 29.9764C64.3489 29.9737 64.2385 30.062 64.0177 30.1641C63.7029 30.3072 63.3494 30.3412 63.0131 30.2607C62.8186 30.2144 62.6351 30.1301 62.4733 30.0127C62.3115 29.8952 62.1744 29.747 62.07 29.5764C61.9656 29.4059 61.896 29.2164 61.8651 29.0189C61.8341 28.8213 61.8425 28.6196 61.8898 28.4253C61.9656 28.1144 62.1388 27.8359 62.384 27.6303C62.6293 27.4248 62.9338 27.303 63.2532 27.2827C63.5501 27.2619 63.8464 27.3312 64.1033 27.4814C64.3327 27.6135 64.5232 27.8039 64.6553 28.0334C64.799 28.2858 64.8683 28.5737 64.8551 28.8639C64.8419 29.154 64.7468 29.4345 64.5808 29.6728C64.4538 29.8826 64.3406 29.9682 64.3517 29.9764Z" fill="#E0E0E0"/>
<path d="M53.4773 15.5058H54.9236C54.9228 15.3405 54.9552 15.1767 55.0189 15.0242C55.0826 14.8716 55.1764 14.7335 55.2946 14.6179C55.4127 14.5023 55.5529 14.4116 55.7068 14.3513C55.8607 14.2909 56.0252 14.2621 56.1904 14.2665C56.4345 14.2577 56.6753 14.3253 56.8791 14.4599C57.083 14.5944 57.2397 14.7893 57.3275 15.0173C57.4036 15.2072 57.4338 15.4125 57.4155 15.6163C57.3973 15.8202 57.3312 16.0168 57.2226 16.1903C56.977 16.596 56.4388 16.9658 55.4618 16.7947V20.0653H56.8942V18.1333C57.483 17.961 57.9989 17.5999 58.3624 17.1057C58.7259 16.6115 58.917 16.0116 58.9062 15.3981C58.9062 13.2757 57.0046 12.7844 56.1904 12.7844C55.5694 12.7982 53.4497 12.9473 53.4773 15.5058Z" fill="#E0E0E0"/>
<path d="M56.9135 20.7388H55.459V22.0994H56.9135V20.7388Z" fill="#E0E0E0"/>
<path d="M36.8377 56.4808H38.2894C38.2886 56.3155 38.3211 56.1517 38.3848 55.9992C38.4485 55.8467 38.5423 55.7085 38.6604 55.5929C38.7786 55.4773 38.9188 55.3867 39.0727 55.3263C39.2266 55.266 39.391 55.2371 39.5563 55.2416C39.7996 55.2331 40.0395 55.3006 40.2428 55.4346C40.446 55.5686 40.6026 55.7626 40.6906 55.9895C40.768 56.1796 40.7991 56.3853 40.7814 56.5897C40.7636 56.7942 40.6975 56.9914 40.5885 57.1653C40.3429 57.571 39.8019 57.9409 38.8249 57.767V61.0376H40.2601V59.1221C40.8489 58.9498 41.3647 58.5888 41.7283 58.0946C42.0918 57.6004 42.2829 57.0004 42.2721 56.387C42.2721 54.2645 40.3705 53.7705 39.5563 53.7705C38.9325 53.7705 36.8101 53.9223 36.8377 56.4808Z" fill="#E0E0E0"/>
<path d="M40.2763 61.7136H38.8218V63.0743H40.2763V61.7136Z" fill="#E0E0E0"/>
<path d="M101.924 67.0928L100.298 66.0606C100.298 66.0606 99.4285 67.4406 97.9933 66.5491C97.7119 66.3854 97.489 66.1376 97.3558 65.8405C97.2226 65.5435 97.1859 65.2121 97.2509 64.8931C97.2998 64.6251 97.4117 64.3725 97.5772 64.1562C97.7427 63.9398 97.9572 63.7657 98.2031 63.6484C98.7689 63.3724 99.6383 63.3392 100.613 64.228L102.942 60.5572L101.333 59.5332L99.9667 61.686C99.9667 61.686 97.3392 60.8359 95.7577 63.3227C94.2452 65.7046 96.0337 67.6117 96.9445 68.1941C97.6428 68.644 100.132 69.9853 101.924 67.0928Z" fill="#E0E0E0"/>
<path d="M102.766 57.2501L101.797 58.7761L103.43 59.8134L104.399 58.2874L102.766 57.2501Z" fill="#E0E0E0"/>
<path d="M37.4558 16.113L36.1061 16.6456C36.1684 16.7988 36.199 16.963 36.1963 17.1283C36.1936 17.2936 36.1575 17.4566 36.0902 17.6076C36.0229 17.7587 35.9259 17.8946 35.8048 18.0072C35.6838 18.1198 35.5413 18.2068 35.3858 18.263C35.1625 18.3618 34.914 18.3883 34.675 18.3388C34.4359 18.2893 34.2184 18.1663 34.0527 17.987C33.9116 17.8388 33.8077 17.6591 33.7496 17.4628C33.6916 17.2666 33.681 17.0593 33.7187 16.8582C33.7988 16.389 34.1631 15.848 35.1374 15.6493L33.934 12.6133L32.6009 13.1404L33.3047 14.9041C32.8205 15.281 32.4734 15.8066 32.3168 16.3999C32.1603 16.9933 32.2029 17.6217 32.4381 18.1885C33.2164 20.1619 35.1677 19.9218 35.924 19.6237C36.5036 19.4029 38.4218 18.4921 37.4558 16.113Z" fill="#E0E0E0"/>
<path d="M33.217 10.6237L31.8643 11.1619L32.3677 12.4273L33.7204 11.8891L33.217 10.6237Z" fill="#E0E0E0"/>
<path d="M130.043 129.571C130.043 129.61 102.719 129.643 69.0027 129.643C35.2865 129.643 7.95703 129.61 7.95703 129.571C7.95703 129.532 35.281 129.499 69.0027 129.499C102.724 129.499 130.043 129.53 130.043 129.571Z" fill="#263238"/>
<path d="M110.4 80.9122L108.278 79.9627L120.916 64.0486L122.978 64.6199C123.286 64.7048 123.561 64.8809 123.767 65.125L125.82 67.5427C125.962 67.7098 126.032 67.9262 126.014 68.1445C125.996 68.3628 125.893 68.5652 125.727 68.7075L111.54 80.7493C111.385 80.8816 111.196 80.9672 110.994 80.996C110.792 81.0248 110.586 80.9958 110.4 80.9122Z" fill="#455A64"/>
<path d="M124.733 79.7917L122.437 81.7237C122.311 81.8309 122.159 81.9027 121.997 81.9318C121.834 81.9609 121.667 81.9462 121.512 81.8893L119.784 81.2738C119.569 81.1936 119.39 81.0375 119.282 80.835L109.881 63.113L112.001 63.7285C112.274 63.8083 112.518 63.9667 112.702 64.1839L124.832 78.4752C124.993 78.6632 125.073 78.9072 125.054 79.154C125.036 79.4007 124.92 79.63 124.733 79.7917Z" fill="#455A64"/>
<g opacity="0.3">
<path d="M110.4 80.9122L108.278 79.9627L120.916 64.0486L122.978 64.6199C123.286 64.7048 123.561 64.8809 123.767 65.125L125.82 67.5427C125.962 67.7098 126.032 67.9262 126.014 68.1445C125.996 68.3628 125.893 68.5652 125.727 68.7075L111.54 80.7493C111.385 80.8816 111.196 80.9672 110.994 80.996C110.792 81.0248 110.586 80.9958 110.4 80.9122Z" fill="black"/>
<path d="M124.733 79.7917L122.437 81.7237C122.311 81.8309 122.159 81.9027 121.997 81.9318C121.834 81.9609 121.667 81.9462 121.512 81.8893L119.784 81.2738C119.569 81.1936 119.39 81.0375 119.282 80.835L109.881 63.113L112.001 63.7285C112.274 63.8083 112.518 63.9667 112.702 64.1839L124.832 78.4752C124.993 78.6632 125.073 78.9072 125.054 79.154C125.036 79.4007 124.92 79.63 124.733 79.7917Z" fill="black"/>
</g>
<path d="M123.36 66.7518L121.274 64.2939C121.048 64.0278 120.649 63.9951 120.383 64.221L106.011 76.4185C105.745 76.6444 105.712 77.0432 105.938 77.3094L108.024 79.7672C108.25 80.0334 108.648 80.066 108.915 79.8402L123.287 67.6426C123.553 67.4168 123.586 67.0179 123.36 66.7518Z" fill="#455A64"/>
<path d="M106.925 65.4179L109.45 63.2749C109.562 63.1802 109.706 63.1337 109.852 63.1456C109.998 63.1575 110.133 63.227 110.228 63.3386L122.486 77.7828C122.595 77.9106 122.648 78.0762 122.634 78.2433C122.621 78.4104 122.541 78.5652 122.413 78.6736L119.949 80.7649C119.821 80.8734 119.656 80.9266 119.489 80.9129C119.322 80.8993 119.167 80.8198 119.058 80.692L106.861 66.3193C106.752 66.1915 106.699 66.0259 106.713 65.8588C106.726 65.6917 106.806 65.5369 106.934 65.4285L106.925 65.4179Z" fill="#455A64"/>
<path d="M110.952 72.9331C110.288 73.5956 109.591 74.2239 108.863 74.8154C108.166 75.4439 107.437 76.0362 106.68 76.5901C107.344 75.9269 108.041 75.2978 108.769 74.705C109.466 74.0777 110.195 73.4863 110.952 72.9331Z" fill="white"/>
<path d="M120.471 64.794C120.499 64.8243 119.444 65.7572 118.122 66.8778C116.8 67.9983 115.707 68.8788 115.683 68.8484C115.658 68.8181 116.707 67.8879 118.031 66.7674C119.356 65.6468 120.446 64.7636 120.471 64.794Z" fill="white"/>
<path d="M111.424 70.656C111.394 70.6808 110.58 69.69 109.605 68.448C108.631 67.206 107.867 66.1738 107.897 66.1489C108.541 66.8534 109.149 67.5904 109.718 68.3569C110.326 69.0932 110.896 69.8606 111.424 70.656Z" fill="white"/>
<path d="M118.699 78.9361C118.038 78.3266 117.409 77.6817 116.817 77.0041C116.189 76.359 115.596 75.68 115.042 74.97C115.702 75.5816 116.331 76.2265 116.925 76.902C117.552 77.5483 118.144 78.2272 118.699 78.9361Z" fill="white"/>
<path d="M10.1957 77.9121L9.75684 76.2782L21.589 78.6352L32.0411 63.9382L33.3162 66.3118C33.414 66.4923 33.4653 66.6944 33.4653 66.8997C33.4653 67.105 33.414 67.3071 33.3162 67.4876L24.2413 84.1C24.0798 84.3952 23.8608 84.655 23.5974 84.8643C23.3339 85.0735 23.0312 85.2279 22.7072 85.3185C22.3832 85.409 22.0443 85.4338 21.7105 85.3914C21.3767 85.349 21.0548 85.2402 20.7637 85.0716L11.606 79.7641C11.2607 79.5633 10.9583 79.2964 10.7163 78.9786C10.4743 78.6608 10.2974 78.2984 10.1957 77.9121Z" fill="#3983DD"/>
<g opacity="0.3">
<path d="M10.1957 77.9121L9.75684 76.2782L21.589 78.6352L32.0411 63.9382L33.3162 66.3118C33.414 66.4923 33.4653 66.6944 33.4653 66.8997C33.4653 67.105 33.414 67.3071 33.3162 67.4876L24.2413 84.1C24.0798 84.3952 23.8608 84.655 23.5974 84.8643C23.3339 85.0735 23.0312 85.2279 22.7072 85.3185C22.3832 85.409 22.0443 85.4338 21.7105 85.3914C21.3767 85.349 21.0548 85.2402 20.7637 85.0716L11.606 79.7641C11.2607 79.5633 10.9583 79.2964 10.7163 78.9786C10.4743 78.6608 10.2974 78.2984 10.1957 77.9121Z" fill="black"/>
</g>
<path d="M9.78976 75.4998L11.4954 72.4803C11.6127 72.2719 11.8053 72.1163 12.0337 72.0454C12.2622 71.9746 12.509 71.9939 12.7236 72.0994L19.5684 75.4528C19.7874 75.5594 20.0391 75.5769 20.2707 75.5018C20.5023 75.4266 20.6958 75.2647 20.8104 75.0499L27.6 62.3097C27.6602 62.1967 27.7429 62.0971 27.843 62.0172C27.9431 61.9373 28.0585 61.8788 28.1821 61.8451C28.3057 61.8115 28.4349 61.8036 28.5617 61.8218C28.6884 61.84 28.8102 61.8839 28.9193 61.9509L31.6793 63.6483C31.8841 63.774 32.0329 63.9734 32.095 64.2055C32.1572 64.4376 32.1279 64.6847 32.0133 64.8958L23.1371 81.1274C22.8503 81.6523 22.3683 82.0432 21.7954 82.2152C21.2224 82.3872 20.6048 82.3266 20.0763 82.0465L10.1651 76.8025C10.0529 76.7436 9.95383 76.6627 9.87377 76.5645C9.79371 76.4663 9.73436 76.353 9.69928 76.2313C9.66421 76.1095 9.65414 75.982 9.66969 75.8563C9.68524 75.7305 9.72609 75.6093 9.78976 75.4998Z" fill="#3983DD"/>
<path d="M19.1021 76.2257C18.9755 76.1883 18.8526 76.1393 18.735 76.0794L17.7607 75.6378C16.9327 75.2569 15.8121 74.7242 14.5701 74.1281L13.6621 73.692L13.2315 73.485C13.1046 73.415 12.9646 73.3718 12.8203 73.358C12.6876 73.3465 12.554 73.3618 12.4274 73.403C12.3008 73.4443 12.1838 73.5106 12.0834 73.5981C11.9168 73.7704 11.7814 73.9702 11.6832 74.1888L11.1505 75.1189C11.09 75.2356 11.0188 75.3465 10.938 75.4501C10.9807 75.3256 11.0353 75.2054 11.1008 75.0913L11.5921 74.1391L11.7577 73.8245C11.8205 73.7052 11.9036 73.5977 12.0033 73.5071C12.1158 73.4079 12.247 73.3323 12.3893 73.2849C12.5315 73.2375 12.6819 73.2192 12.8313 73.2311C12.9926 73.2442 13.1495 73.2902 13.2923 73.3663L13.7228 73.5705L14.6281 73.9983C15.8701 74.5945 16.9934 75.1437 17.8021 75.5467L18.7681 76.0297C18.8845 76.0859 18.9962 76.1515 19.1021 76.2257Z" fill="white"/>
<path d="M21.611 75.6765C21.5751 75.6572 23.0131 72.8144 24.8236 69.3285C26.6342 65.8426 28.1356 63.0274 28.1632 63.0467C28.1908 63.066 26.7612 65.9061 24.9506 69.3947C23.14 72.8834 21.6441 75.6931 21.611 75.6765Z" fill="white"/>
<path d="M50.1211 37.7062C50.752 32.6266 47.1457 27.9973 42.0661 27.3664C36.9865 26.7355 32.3572 30.3419 31.7263 35.4215C31.0954 40.5011 34.7018 45.1303 39.7814 45.7612C44.861 46.3921 49.4902 42.7858 50.1211 37.7062Z" fill="white"/>
<path d="M50.1904 36.559C50.1904 36.559 50.1904 36.5094 50.1904 36.41C50.1904 36.3106 50.1904 36.1589 50.1739 35.9684L50.1601 35.6427C50.1601 35.524 50.127 35.3943 50.1076 35.2536C50.0883 35.1128 50.0635 34.961 50.0414 34.8009C50.0193 34.6408 49.9641 34.4725 49.9255 34.2931C49.7166 33.4178 49.374 32.58 48.9098 31.8091C48.3042 30.7816 47.5046 29.8817 46.5555 29.1595L46.1553 28.8586C46.0146 28.7648 45.8655 28.6792 45.7192 28.5826C45.573 28.486 45.4267 28.3922 45.2666 28.3066L44.7836 28.072L44.538 27.9561L44.2785 27.8623L43.7569 27.6691C43.5775 27.6084 43.3926 27.5697 43.2049 27.52C43.0232 27.4674 42.839 27.4241 42.6529 27.3903C42.2636 27.3176 41.8699 27.2715 41.4744 27.2523C41.2729 27.2523 41.0714 27.2247 40.8672 27.2275L40.2517 27.2578C40.1468 27.2578 40.0419 27.2578 39.9398 27.2772L39.6279 27.3241C39.4209 27.3572 39.2112 27.382 39.0014 27.4262C38.5799 27.5191 38.1649 27.6399 37.7594 27.7878C37.3417 27.9366 36.935 28.1146 36.5422 28.3204C36.3463 28.4253 36.1558 28.5495 35.9599 28.6654C35.866 28.7262 35.7639 28.7786 35.6839 28.8476L35.4079 29.0518C35.0366 29.3278 34.6835 29.6274 34.3508 29.9488L33.8761 30.4705L33.7574 30.603L33.6498 30.7437L33.4372 31.0197L33.222 31.2957L33.0343 31.6021L32.8466 31.9084L32.7528 32.0658L32.6727 32.2286C32.5678 32.4466 32.4602 32.6647 32.3553 32.8855C32.2504 33.1063 32.187 33.3436 32.1014 33.5755C31.461 35.4847 31.461 37.5506 32.1014 39.4598C32.187 39.6916 32.2698 39.9207 32.3553 40.1498L32.67 40.8094L32.75 40.9723L32.8438 41.1268L33.0315 41.436L33.222 41.7423L33.4345 42.0183L33.6498 42.2943L33.7574 42.4378L33.8761 42.5676L34.3508 43.0892C34.6828 43.4114 35.0359 43.7111 35.4079 43.9862L35.6839 44.1932C35.775 44.2622 35.8771 44.3146 35.9599 44.3754C36.1558 44.4885 36.3435 44.6127 36.5422 44.7204C36.935 44.9262 37.3417 45.1042 37.7594 45.253C38.1649 45.4009 38.5799 45.5217 39.0014 45.6146C39.2112 45.6588 39.4209 45.6808 39.6279 45.7167L39.9398 45.7636C40.0447 45.7774 40.1468 45.7636 40.2517 45.783L40.8672 45.8133C41.0714 45.8133 41.2756 45.7968 41.4744 45.7885C41.8699 45.7694 42.2636 45.7233 42.6529 45.6505C42.839 45.617 43.0233 45.5737 43.2049 45.5208C43.3898 45.4683 43.5747 45.4297 43.7569 45.3717L44.2785 45.1785L44.538 45.0847L44.7836 44.966L45.2666 44.7342C45.4267 44.6596 45.5702 44.5548 45.7192 44.4582C45.8683 44.3616 46.0146 44.2815 46.1553 44.1822L46.5583 43.8813C47.5059 43.1583 48.3045 42.2585 48.9098 41.2317C49.3735 40.4606 49.7161 39.6228 49.9255 38.7477C49.9728 38.5805 50.0115 38.411 50.0414 38.2399C50.0635 38.077 50.0883 37.9252 50.1076 37.7845C50.127 37.6437 50.149 37.5085 50.1601 37.3953C50.1711 37.2822 50.1601 37.169 50.1739 37.0724C50.1739 36.8792 50.1877 36.7329 50.1904 36.6308C50.1932 36.5287 50.1904 36.479 50.1904 36.479C50.1904 36.479 50.1904 36.5314 50.1904 36.6308C50.1904 36.7302 50.1766 36.8792 50.1628 37.0696C50.1628 37.1662 50.1628 37.2739 50.1435 37.3953C50.1242 37.5168 50.1076 37.641 50.0856 37.7817C50.0635 37.9225 50.0386 38.0577 50.0138 38.2316C49.9835 38.4023 49.943 38.5709 49.8924 38.7367C49.6773 39.6035 49.3321 40.4326 48.8684 41.1958C48.265 42.2383 47.4622 43.1518 46.5058 43.8841L46.1084 44.1822C45.9676 44.2732 45.8186 44.3588 45.6751 44.4582C45.5316 44.5575 45.3825 44.6458 45.2224 44.7204L44.745 44.9494L44.5021 45.0654L44.2454 45.1592L43.7265 45.3469C43.5499 45.4048 43.365 45.4435 43.1745 45.4932C42.9928 45.5451 42.8086 45.5874 42.6225 45.6201C42.2367 45.6908 41.8467 45.736 41.455 45.7554C41.2563 45.7554 41.0576 45.7802 40.8534 45.7774L40.2434 45.7443C40.1413 45.7443 40.0392 45.7443 39.937 45.725L39.6279 45.6781C39.4237 45.645 39.2139 45.6201 39.0097 45.5787C38.5917 45.4861 38.1804 45.3653 37.7787 45.2172C37.3672 45.0685 36.9661 44.8924 36.5781 44.69C36.3822 44.5824 36.1972 44.4609 36.004 44.345C35.9102 44.2843 35.8081 44.2346 35.728 44.1656L35.452 43.9614C35.0838 43.689 34.7343 43.3921 34.406 43.0726L33.9478 42.5593L33.8292 42.4296L33.7243 42.2888L33.5118 42.0128L33.2992 41.7368L33.1143 41.4332L32.9294 41.1268L32.8356 40.975L32.7583 40.8122L32.4436 40.1636L32.1952 39.4791C31.5622 37.5933 31.5622 35.5524 32.1952 33.6666L32.4464 32.9821C32.5513 32.7668 32.6534 32.5488 32.7583 32.3335L32.8383 32.1734L32.9294 32.0188L33.1143 31.7152L33.302 31.4116L33.5118 31.1356L33.7243 30.8596L33.8292 30.7189L33.9478 30.5892L34.417 30.073C34.7451 29.7544 35.0936 29.4576 35.4603 29.1843L35.7363 28.9828C35.8246 28.9138 35.9268 28.8614 36.0123 28.8007C36.2055 28.6875 36.3904 28.5633 36.5864 28.4584C36.9744 28.2561 37.3755 28.08 37.787 27.9313C38.1887 27.7831 38.5999 27.6623 39.018 27.5697C39.2222 27.5283 39.432 27.5035 39.6362 27.4704L39.9453 27.4234C40.0474 27.4096 40.1496 27.4096 40.2517 27.4014L40.8616 27.371C41.0659 27.371 41.2646 27.3876 41.4633 27.3931C41.855 27.4127 42.245 27.4578 42.6308 27.5283C42.8171 27.5597 43.0015 27.6021 43.1828 27.6553C43.365 27.705 43.5499 27.7436 43.7348 27.8016L44.2537 27.9892L44.5076 28.0831L44.7532 28.199L45.2307 28.4281C45.3908 28.4998 45.5316 28.6047 45.6806 28.6875C45.8296 28.7703 45.9759 28.8614 46.1167 28.9635L46.5141 29.2588C47.4574 29.9737 48.2547 30.8628 48.8629 31.8781C49.3261 32.6416 49.6713 33.4706 49.8868 34.3372C49.9368 34.5032 49.9774 34.6718 50.0083 34.8423C50.0331 35.0052 50.058 35.1542 50.08 35.295C50.1021 35.4357 50.127 35.571 50.138 35.6814C50.149 35.7918 50.1518 35.9077 50.1573 36.0071C50.1711 36.1975 50.1794 36.3438 50.1849 36.4459C50.1904 36.548 50.1904 36.559 50.1904 36.559Z" fill="#263238"/>
<path d="M53.7151 42.3854C53.7151 42.6834 53.6267 42.9748 53.4611 43.2226C53.2955 43.4704 53.0602 43.6636 52.7848 43.7776C52.5095 43.8917 52.2065 43.9215 51.9141 43.8634C51.6218 43.8052 51.3533 43.6617 51.1425 43.451C50.9318 43.2402 50.7883 42.9717 50.7301 42.6794C50.672 42.3871 50.7018 42.0841 50.8159 41.8087C50.9299 41.5333 51.1231 41.298 51.3709 41.1324C51.6187 40.9668 51.9101 40.8784 52.2081 40.8784C52.4061 40.8781 52.6023 40.9168 52.7852 40.9924C52.9682 41.068 53.1345 41.179 53.2745 41.319C53.4145 41.459 53.5255 41.6253 53.6011 41.8083C53.6767 41.9913 53.7155 42.1874 53.7151 42.3854Z" fill="white"/>
<path d="M53.7151 42.3854C53.7151 42.3854 53.7151 42.3523 53.7151 42.2888C53.716 42.196 53.7058 42.1033 53.6848 42.0128C53.6069 41.6717 53.4115 41.3688 53.1328 41.1572C52.9473 41.0058 52.729 40.8999 52.4952 40.8481C52.2185 40.795 51.9326 40.8169 51.6672 40.9116C51.3742 41.0178 51.1201 41.2102 50.9386 41.4636C50.7415 41.7311 50.6353 42.0546 50.6353 42.3868C50.6353 42.719 50.7415 43.0426 50.9386 43.31C51.1201 43.5634 51.3742 43.7559 51.6672 43.862C51.932 43.9595 52.2187 43.9814 52.4952 43.9255C52.7841 43.8682 53.0504 43.7289 53.2624 43.5244C53.4743 43.3198 53.6228 43.0586 53.6903 42.7718C53.7113 42.6814 53.7215 42.5887 53.7207 42.4958C53.7207 42.4324 53.7207 42.3992 53.7207 42.3992C53.7207 42.3992 53.7207 42.5345 53.6517 42.7636C53.578 43.0341 53.4293 43.2782 53.2227 43.4677C53.0161 43.6572 52.76 43.7844 52.4842 43.8344C52.2268 43.8796 51.9621 43.8558 51.7169 43.7654C51.4465 43.6677 51.2118 43.4908 51.0435 43.2576C50.8605 43.0088 50.7619 42.7081 50.7619 42.3992C50.7619 42.0904 50.8605 41.7897 51.0435 41.5409C51.2126 41.3086 51.447 41.1318 51.7169 41.033C51.9621 40.9427 52.2268 40.9189 52.4842 40.964C52.7604 41.0143 53.0166 41.1419 53.2233 41.3319C53.4299 41.522 53.5785 41.7667 53.6517 42.0377C53.7096 42.2502 53.7041 42.3854 53.7151 42.3854Z" fill="#263238"/>
<path d="M37.8752 37.2904V38.5517H36.8816V37.2766L35.543 35.052H36.589L37.417 36.4486L38.245 35.052H39.2082L37.8752 37.2904Z" fill="#263238"/>
<path d="M42.2719 37.7844V38.5517H39.4678V35.052H42.2278V35.822H40.4586V36.4127H42.018V37.1551H40.4586V37.7982L42.2719 37.7844Z" fill="#263238"/>
<path d="M42.5757 38.2345L42.9014 37.5031C43.2487 37.7225 43.6498 37.8419 44.0606 37.8481C44.4718 37.8481 44.6319 37.7321 44.6319 37.5721C44.6319 37.0201 42.6364 37.4203 42.6364 36.1175C42.6364 35.4883 43.1498 34.9777 44.193 34.9777C44.6363 34.9702 45.0741 35.0757 45.4654 35.284L45.159 36.0209C44.8629 35.8503 44.5292 35.7555 44.1875 35.7449C43.7708 35.7449 43.619 35.8857 43.619 36.0596C43.619 36.6116 45.6117 36.1948 45.6117 37.4893C45.6117 38.102 45.0983 38.6236 44.055 38.6236C43.5351 38.6359 43.0223 38.501 42.5757 38.2345Z" fill="#263238"/>
<path d="M101.556 52.2561C107.009 51.5624 110.867 46.5798 110.173 41.1271C109.48 35.6744 104.497 31.8164 99.0444 32.5101C93.5917 33.2038 89.7337 38.1864 90.4274 43.6391C91.1211 49.0918 96.1037 52.9498 101.556 52.2561Z" fill="white"/>
<path d="M90.3457 42.3909C90.3457 42.3909 90.3457 42.3357 90.3457 42.228C90.3457 42.1204 90.3457 41.952 90.365 41.7561L90.3788 41.4056C90.3788 41.2786 90.4147 41.1296 90.4368 40.9888C90.4589 40.848 90.481 40.6742 90.5086 40.5003C90.5387 40.3139 90.5801 40.1296 90.6328 39.9483C90.8581 39.01 91.2257 38.1118 91.723 37.2849C92.3736 36.1825 93.2311 35.2163 94.2484 34.4393L94.6789 34.1164C94.8307 34.017 94.9908 33.926 95.1481 33.8404C95.3054 33.7548 95.4628 33.6362 95.6366 33.5644L96.1528 33.316L96.4288 33.189L96.7048 33.0869L97.2568 32.8799C97.4472 32.8164 97.6487 32.775 97.8446 32.7198C98.0434 32.6628 98.2452 32.6167 98.4491 32.5818C98.8666 32.504 99.2889 32.4542 99.7132 32.4328C99.9312 32.4328 100.146 32.4024 100.367 32.4052L101.03 32.4383C101.14 32.4383 101.25 32.4383 101.364 32.4604L101.698 32.5101C101.918 32.546 102.145 32.5736 102.371 32.6177C102.823 32.7199 103.268 32.8498 103.704 33.0069C104.152 33.1672 104.589 33.359 105.01 33.581C105.222 33.6941 105.426 33.8266 105.633 33.9508C105.738 34.017 105.846 34.0722 105.945 34.1468L106.238 34.3676C106.638 34.6626 107.018 34.9844 107.375 35.3308L107.886 35.8828L108.012 36.0236L108.128 36.1754L108.357 36.4817L108.587 36.7881L108.791 37.1193L108.992 37.4505L109.092 37.6161L109.177 37.79C109.29 38.0246 109.404 38.2619 109.519 38.4965C109.635 38.7311 109.699 38.9906 109.795 39.239C110.487 41.288 110.487 43.5075 109.795 45.5566C109.704 45.805 109.616 46.0534 109.519 46.299L109.18 47.0056L109.094 47.1795L108.992 47.3451L108.791 47.679L108.589 48.0075L108.357 48.3138L108.128 48.623L108.012 48.7748L107.886 48.9155L107.375 49.4675C107.018 49.8125 106.639 50.1342 106.241 50.4308L105.945 50.6516C105.846 50.7233 105.738 50.7813 105.636 50.8448C105.426 50.969 105.222 51.1042 105.012 51.2174C104.59 51.4368 104.152 51.6276 103.704 51.7887C103.268 51.9486 102.822 52.0786 102.368 52.1778C102.145 52.2248 101.918 52.2496 101.695 52.2855L101.364 52.3379C101.25 52.3517 101.14 52.3517 101.027 52.3572L100.367 52.3904C100.146 52.3904 99.9284 52.371 99.7132 52.3655C99.2889 52.3433 98.8666 52.2926 98.4491 52.2137C98.2449 52.1805 98.043 52.1344 97.8446 52.0757C97.6459 52.0205 97.4472 51.9791 97.2568 51.9156L96.7048 51.7086L96.4288 51.6093L96.1528 51.4823L95.6339 51.2312C95.4628 51.1511 95.3082 51.0407 95.1481 50.9552C94.988 50.8696 94.8307 50.7675 94.6789 50.6654L94.2484 50.3424C93.2297 49.5662 92.3711 48.5999 91.7202 47.4969C91.224 46.6697 90.8573 45.7716 90.6328 44.8335C90.5798 44.6523 90.5383 44.4679 90.5086 44.2815C90.481 44.1076 90.4589 43.9448 90.4368 43.7957C90.4147 43.6467 90.3899 43.5197 90.3788 43.3762C90.3678 43.2327 90.3788 43.1333 90.365 43.0284C90.365 42.8214 90.3512 42.6641 90.3457 42.5537C90.3402 42.4433 90.3457 42.3936 90.3457 42.3936C90.3457 42.3936 90.3457 42.4488 90.3595 42.5537C90.3733 42.6586 90.3788 42.8297 90.3899 43.0257C90.3899 43.1306 90.4037 43.2465 90.412 43.3734C90.4202 43.5004 90.4506 43.6494 90.4727 43.7902C90.4948 43.931 90.5224 44.1021 90.55 44.2732C90.5776 44.4443 90.6355 44.6265 90.6797 44.8252C90.9131 45.756 91.2853 46.6464 91.7837 47.4665C92.4364 48.5571 93.2928 49.512 94.3063 50.279L94.7341 50.5964C94.8832 50.6957 95.0432 50.7868 95.2006 50.8724C95.3568 50.9725 95.518 51.0646 95.6836 51.1484L96.1969 51.394L96.4729 51.5182L96.7489 51.6203L97.3009 51.8218C97.4914 51.8853 97.6901 51.9267 97.886 51.9791C98.0829 52.0359 98.2828 52.081 98.485 52.1144C98.8979 52.1914 99.3156 52.2403 99.7352 52.2606C99.9505 52.2606 100.166 52.2882 100.381 52.2855L101.038 52.2496C101.146 52.2496 101.259 52.2496 101.366 52.2303L101.698 52.1778C101.918 52.142 102.142 52.1171 102.363 52.0702C102.811 51.9706 103.253 51.8415 103.685 51.6838C104.127 51.5241 104.558 51.3342 104.974 51.1152C105.183 51.0021 105.385 50.8696 105.592 50.7482C105.691 50.6819 105.802 50.6267 105.896 50.555L106.188 50.3369C106.583 50.0431 106.958 49.7241 107.311 49.382L107.814 48.83L107.941 48.692L108.054 48.5402L108.28 48.2366L108.509 47.933L108.708 47.6073L108.907 47.2788L109.006 47.116L109.092 46.9421C109.202 46.7103 109.315 46.4784 109.426 46.2438C109.536 46.0092 109.605 45.7553 109.702 45.5124C110.026 44.5021 110.197 43.449 110.209 42.3881C110.197 41.3279 110.025 40.2755 109.699 39.2666L109.423 38.5352C109.31 38.3006 109.199 38.0687 109.086 37.8369L109.003 37.663L108.904 37.5002L108.702 37.1717L108.504 36.846L108.277 36.5424L108.051 36.2388L107.938 36.0898L107.811 35.949L107.309 35.397C106.955 35.0557 106.58 34.7377 106.185 34.4448L105.893 34.2268C105.796 34.1523 105.689 34.0971 105.589 34.0336C105.382 33.9094 105.181 33.7797 104.971 33.6638C104.145 33.235 103.268 32.915 102.36 32.7116C102.139 32.6646 101.916 32.6398 101.695 32.6012L101.366 32.5515C101.256 32.5377 101.146 32.5377 101.035 32.5294L100.378 32.4963C100.163 32.4963 99.9478 32.5128 99.7352 32.5211C99.3146 32.54 98.8959 32.5888 98.4822 32.6674C98.2796 32.6984 98.0795 32.7436 97.8833 32.8026C97.6873 32.8551 97.4886 32.8965 97.2982 32.9572L96.7462 33.1614L96.4702 33.2608L96.1942 33.385L95.6808 33.6306C95.5097 33.7107 95.3579 33.8211 95.1978 33.9066C95.0377 33.9922 94.8832 34.0916 94.7314 34.1826L94.3036 34.5028C93.2903 35.27 92.4339 36.2248 91.7809 37.3152C91.2831 38.1346 90.9109 39.024 90.6769 39.9538C90.6328 40.147 90.5693 40.3236 90.5472 40.5058C90.5251 40.688 90.4948 40.8398 90.4699 40.9916C90.4451 41.1434 90.423 41.2676 90.4092 41.4056C90.3954 41.5436 90.3926 41.6512 90.3871 41.7533L90.3568 42.2253C90.354 42.3357 90.3457 42.3909 90.3457 42.3909Z" fill="#263238"/>
<path d="M86.5615 48.6452C86.561 48.9659 86.6556 49.2795 86.8334 49.5463C87.0112 49.8132 87.2642 50.0213 87.5604 50.1442C87.8565 50.2672 88.1825 50.2995 88.497 50.2371C88.8116 50.1747 89.1005 50.0203 89.3272 49.7935C89.554 49.5668 89.7083 49.2779 89.7708 48.9633C89.8332 48.6488 89.8009 48.3228 89.6779 48.0267C89.5549 47.7305 89.3469 47.4775 89.08 47.2997C88.8132 47.1219 88.4995 47.0273 88.1789 47.0278C87.7502 47.0286 87.3392 47.1992 87.036 47.5024C86.7329 47.8055 86.5623 48.2165 86.5615 48.6452Z" fill="white"/>
<path d="M86.5619 48.6451C86.5578 48.6111 86.5578 48.5768 86.5619 48.5429C86.5608 48.4426 86.5719 48.3425 86.595 48.2449C86.677 47.8797 86.884 47.5546 87.1801 47.3258C87.3843 47.1659 87.6237 47.0571 87.8784 47.0084C88.1532 46.9529 88.4376 46.9675 88.7053 47.0508C88.973 47.1342 89.2154 47.2836 89.4102 47.4853C89.6049 47.6871 89.7457 47.9346 89.8196 48.205C89.8936 48.4755 89.8982 48.7602 89.833 49.0329C89.7679 49.3056 89.6352 49.5576 89.4471 49.7655C89.259 49.9734 89.0215 50.1306 88.7566 50.2225C88.4918 50.3145 88.208 50.3383 87.9315 50.2917C87.655 50.2452 87.3947 50.1297 87.1746 49.9561C86.8779 49.7277 86.6709 49.4024 86.5895 49.037C86.5664 48.9403 86.5553 48.8411 86.5564 48.7417C86.5522 48.7068 86.5522 48.6716 86.5564 48.6368C86.5702 48.6368 86.5564 48.7803 86.6309 49.0259C86.726 49.3717 86.9339 49.6757 87.2215 49.8898C87.4316 50.0463 87.6774 50.1479 87.9367 50.1855C88.196 50.2231 88.4605 50.1954 88.7064 50.1051C88.9977 49.9984 89.2498 49.8059 89.4295 49.5531C89.6267 49.2862 89.7332 48.9631 89.7332 48.6313C89.7332 48.2994 89.6267 47.9763 89.4295 47.7094C89.2498 47.4566 88.9977 47.2641 88.7064 47.1574C88.4416 47.0609 88.1559 47.0361 87.8784 47.0857C87.6393 47.1254 87.4126 47.2199 87.216 47.3617C86.9284 47.5758 86.7205 47.8798 86.6254 48.2255C86.5702 48.5015 86.5757 48.6451 86.5619 48.6451Z" fill="#263238"/>
<path d="M99.8374 40.147V44.3532H98.8576L97.0002 42.1121V44.3532H95.8354V40.147H96.8152L98.6727 42.3881V40.147H99.8374Z" fill="#263238"/>
<path d="M100.464 42.2502C100.464 40.9889 101.455 40.0615 102.802 40.0615C104.148 40.0615 105.139 40.9889 105.139 42.2502C105.139 43.5115 104.148 44.4389 102.802 44.4389C101.455 44.4389 100.464 43.5115 100.464 42.2502ZM103.939 42.2502C103.926 42.0286 103.848 41.8156 103.716 41.6375C103.583 41.4594 103.401 41.324 103.193 41.248C102.984 41.172 102.758 41.1588 102.542 41.2098C102.326 41.2609 102.129 41.3741 101.977 41.5355C101.825 41.6968 101.723 41.8993 101.684 42.1178C101.645 42.3364 101.671 42.5616 101.759 42.7655C101.847 42.9695 101.992 43.1433 102.177 43.2656C102.363 43.3878 102.58 43.4532 102.802 43.4536C102.957 43.4555 103.111 43.4251 103.255 43.3644C103.398 43.3037 103.527 43.214 103.634 43.101C103.741 42.9879 103.823 42.854 103.875 42.7075C103.928 42.5611 103.949 42.4054 103.939 42.2502Z" fill="#263238"/>
<path d="M85.7071 28.3508C90.1212 26.6138 92.2888 21.6204 90.5484 17.1977C88.8081 12.775 83.8188 10.5978 79.4047 12.3348C74.9905 14.0719 72.8229 19.0653 74.5633 23.488C76.3037 27.9106 81.2929 30.0878 85.7071 28.3508Z" fill="white"/>
<path d="M79.1288 28.2239L79.2586 28.2764L79.6394 28.4254L79.9154 28.5358C80.0203 28.5689 80.139 28.5965 80.266 28.6324L80.6772 28.7428C80.8346 28.7818 80.994 28.8122 81.1547 28.8339C81.9752 28.9781 82.8129 28.9958 83.6387 28.8863C84.7374 28.7548 85.8002 28.4117 86.7685 27.8762L87.1742 27.6471C87.304 27.5615 87.4337 27.4649 87.5634 27.3711C87.6931 27.2772 87.8394 27.1917 87.9553 27.0951L88.3334 26.7694L88.6812 26.441L88.7005 26.4189C88.8192 26.2975 88.9379 26.1705 89.0566 26.0463C89.1753 25.9221 89.2746 25.7703 89.385 25.635C89.4991 25.4898 89.6042 25.3378 89.6996 25.1797C89.9046 24.8759 90.0891 24.5587 90.2516 24.2302C90.3317 24.0619 90.4255 23.8962 90.4973 23.7224L90.7733 22.9882L90.8036 22.9082L90.8782 22.6322C90.9251 22.4417 90.983 22.2541 91.0244 22.0609C91.1005 21.6671 91.1512 21.2688 91.1762 20.8685C91.2038 20.4587 91.2038 20.0474 91.1762 19.6376C91.1597 19.4306 91.1238 19.2236 91.0962 19.0166C91.0796 18.9117 91.0741 18.8068 91.0493 18.7019L90.9748 18.3928C90.9065 18.0573 90.8142 17.7271 90.6988 17.4047C90.6353 17.2447 90.569 17.0846 90.5056 16.9217L90.2516 16.4139L90.1688 16.2704L90.006 15.9944L89.8404 15.7184L89.65 15.4424L89.4568 15.1664L89.3602 15.0284L89.2498 14.8987L88.3776 13.9768L88.3141 13.9161C86.9268 12.665 85.1688 11.9013 83.3075 11.7412H83.2274H81.9496H81.7812L81.6128 11.7661L81.2816 11.8102L80.9504 11.8571L80.6275 11.9344L80.3074 12.0117L80.1473 12.0503L79.6201 12.2297L79.1344 12.4202C78.8181 12.5532 78.5111 12.7072 78.2153 12.8811L77.9393 13.0412C77.8482 13.0936 77.7654 13.1599 77.6799 13.2178C77.5087 13.342 77.3348 13.4579 77.1692 13.5849C76.5389 14.0983 75.9777 14.6911 75.4994 15.3485C75.3863 15.5086 75.2869 15.6797 75.182 15.8453L75.0275 16.091C75.013 16.113 75.0001 16.1361 74.9889 16.16C74.8729 16.3973 74.757 16.6292 74.6411 16.861C74.5638 17.0349 74.5058 17.2143 74.4396 17.3882C74.3095 17.7318 74.2035 18.0841 74.1222 18.4425C74.0782 18.616 74.045 18.792 74.0229 18.9697C73.998 19.1435 73.9621 19.3174 73.9483 19.4913C73.9345 19.6652 73.9262 19.8391 73.918 20.0102V20.5125C73.918 20.6809 73.9318 20.8464 73.9373 21.012C73.9428 21.1776 73.9787 21.335 73.9952 21.495C74.0118 21.6551 74.0366 21.8097 74.0642 21.9643L74.1719 22.4169C74.4361 23.4908 74.9046 24.5037 75.5519 25.4004C76.037 26.0776 76.6224 26.677 77.2879 27.1779C77.4122 27.2773 77.5421 27.3695 77.6771 27.4539L78.0386 27.6802C78.1518 27.7465 78.2539 27.8155 78.3505 27.8679L78.6265 28.0004L78.9964 28.177L79.1233 28.235L79.0019 28.1687L78.6376 27.981L78.3616 27.8458C78.265 27.7906 78.1628 27.7216 78.0524 27.6526L77.6936 27.4263C77.5612 27.3408 77.4331 27.2487 77.31 27.1503C76.6598 26.6363 76.0912 26.0268 75.6236 25.3425C74.9765 24.4528 74.5078 23.4462 74.2436 22.3783C74.2078 22.2292 74.1719 22.0802 74.1388 21.9284C74.1056 21.7766 74.0946 21.6193 74.0725 21.4619C74.0457 21.3029 74.0272 21.1426 74.0173 20.9817C74.0173 20.8216 74.0035 20.656 73.998 20.4904C73.9925 20.3248 73.998 20.1427 73.998 20.0129V19.9881L74.0311 19.4775C74.0449 19.3036 74.0808 19.1352 74.1056 18.9614C74.1292 18.7858 74.1623 18.6117 74.205 18.4397C74.2904 18.0821 74.4002 17.7308 74.5334 17.3882C74.5997 17.2171 74.6576 17.0377 74.7349 16.8693C74.8481 16.6375 74.964 16.4056 75.0799 16.171C75.0799 16.1489 75.1048 16.1269 75.1186 16.1048C75.1683 16.0247 75.2207 15.9447 75.2704 15.8619C75.3752 15.6991 75.4746 15.5307 75.5878 15.3706C75.8205 15.0507 76.0741 14.7465 76.3468 14.4598C76.6253 14.1635 76.9241 13.8868 77.241 13.6318C77.4038 13.5049 77.5777 13.3917 77.7461 13.2703C77.8316 13.2123 77.9117 13.1433 78.0028 13.0936L78.2788 12.9363C78.6472 12.7276 79.0289 12.5432 79.4214 12.3843L80.0341 12.1773L80.1887 12.1249L80.346 12.0862L80.6634 12.0117L80.9836 11.9344L81.312 11.8903L81.6377 11.8433L81.8033 11.8213H81.9689H83.2385H83.313C85.1521 11.9791 86.889 12.7342 88.2589 13.9713L88.3196 14.0293L89.1835 14.9428L89.2939 15.0698L89.3878 15.205L89.581 15.481L89.7686 15.757L89.9315 16.033L90.0943 16.309L90.1744 16.4498L90.2406 16.5988C90.3317 16.7948 90.42 16.9907 90.5166 17.1867C90.6662 17.584 90.7897 17.9905 90.8864 18.4039L90.9582 18.7102C90.983 18.8123 90.9886 18.9172 91.0051 19.0193C91.0327 19.2263 91.0686 19.4306 91.0852 19.6348C91.1141 20.04 91.1141 20.4468 91.0852 20.852C91.0619 21.2476 91.0131 21.6412 90.9389 22.0305C90.8975 22.2237 90.8423 22.4086 90.7954 22.5825L90.7208 22.8585C90.7151 22.8829 90.7077 22.9069 90.6988 22.9303L90.4228 23.6589C90.351 23.8328 90.2599 23.9956 90.1826 24.1612C90.0195 24.4876 89.8351 24.8029 89.6306 25.1051C89.5345 25.254 89.4295 25.3968 89.316 25.5329C89.2084 25.6709 89.1062 25.8089 88.9931 25.9414L88.6398 26.314L88.4659 26.4962L88.4494 26.5127L87.8974 26.9847C87.7759 27.0923 87.6352 27.1751 87.5082 27.2607C87.3812 27.3462 87.2515 27.4484 87.1218 27.5367L86.7216 27.7658C85.769 28.3173 84.7181 28.6782 83.6276 28.8284C82.8072 28.9423 81.9742 28.9302 81.1574 28.7925C80.9978 28.7737 80.8393 28.7461 80.6827 28.7097L80.2715 28.602C80.1445 28.5689 80.0258 28.5441 79.921 28.511L79.645 28.4061L79.2586 28.2681L79.1288 28.2239Z" fill="#263238"/>
<path d="M75.6985 31.9608C75.3997 31.9066 75.1266 31.7567 74.9205 31.5336C74.7144 31.3106 74.5864 31.0265 74.5559 30.7244C74.5254 30.4222 74.594 30.1183 74.7515 29.8586C74.9089 29.5989 75.1465 29.3974 75.4285 29.2847C75.7104 29.1719 76.0214 29.1539 76.3145 29.2334C76.6076 29.3129 76.8669 29.4856 77.0532 29.7255C77.2395 29.9653 77.3427 30.2592 77.3473 30.5629C77.3519 30.8665 77.2575 31.1634 77.0785 31.4088C76.9233 31.6209 76.7117 31.7851 76.4677 31.8827C76.2237 31.9803 75.9571 32.0073 75.6985 31.9608Z" fill="white"/>
<path d="M75.389 31.8642C75.389 31.8642 75.4166 31.8836 75.469 31.9056C75.5484 31.9407 75.6319 31.9658 75.7174 31.9802C76.035 32.042 76.3643 31.9902 76.6476 31.8339C76.8587 31.7182 77.0372 31.551 77.1666 31.3479C77.2959 31.1447 77.3718 30.9122 77.3872 30.6719C77.4106 30.3829 77.344 30.0937 77.1968 29.8439C77.0416 29.5778 76.8047 29.3689 76.5213 29.248C76.2379 29.1272 75.9231 29.101 75.6236 29.1732C75.3562 29.2344 75.1119 29.3708 74.9197 29.5665C74.7275 29.7622 74.5953 30.0088 74.5389 30.2772C74.4919 30.4961 74.4966 30.7229 74.5527 30.9396C74.6319 31.2528 74.8185 31.5282 75.0799 31.718C75.1489 31.77 75.224 31.8135 75.3034 31.8477C75.3559 31.8725 75.3862 31.8836 75.3862 31.878C75.3862 31.8725 75.2758 31.8228 75.1102 31.6876C74.8684 31.4931 74.6993 31.2228 74.63 30.9203C74.5802 30.7154 74.5802 30.5015 74.63 30.2966C74.6845 30.0609 74.8018 29.8444 74.9695 29.67C75.1526 29.4754 75.3902 29.3408 75.6512 29.2836C75.9285 29.2224 76.218 29.2494 76.4792 29.3609C76.7413 29.4737 76.9608 29.6671 77.1057 29.9129C77.2431 30.1422 77.3076 30.4079 77.2906 30.6747C77.2762 30.9005 77.2065 31.1193 77.0876 31.3118C76.9687 31.5043 76.8043 31.6647 76.6089 31.7787C76.3396 31.932 76.0272 31.9922 75.7202 31.9498C75.5077 31.9084 75.3945 31.856 75.389 31.8642Z" fill="#263238"/>
<path d="M80.1199 18.8949H81.4198C81.4198 18.7473 81.4493 18.6013 81.5067 18.4653C81.564 18.3293 81.6481 18.2063 81.7538 18.1033C81.8596 18.0004 81.9849 17.9197 82.1224 17.8661C82.2598 17.8124 82.4067 17.7869 82.5542 17.7909C82.773 17.7824 82.9891 17.8425 83.1722 17.9627C83.3553 18.083 83.4962 18.2574 83.5754 18.4616C83.6439 18.6323 83.6711 18.8168 83.6548 19C83.6385 19.1832 83.5791 19.36 83.4815 19.5159C83.2607 19.8802 82.7777 20.2114 81.9001 20.0679V22.9797H83.1862V21.252C83.7144 21.0972 84.177 20.7733 84.5032 20.33C84.8293 19.8867 85.0008 19.3486 84.9913 18.7983C84.9913 16.8967 83.2856 16.4551 82.5542 16.4551C81.9967 16.4661 80.095 16.5986 80.1199 18.8949Z" fill="#263238"/>
<path d="M83.2029 23.5842H81.8975V24.8042H83.2029V23.5842Z" fill="#263238"/>
<path d="M35.0796 96.3903C35.0796 96.3903 32.7226 94.1823 31.8145 93.5889C30.9065 92.9955 28.8751 92.1924 28.1161 92.1179C27.3571 92.0434 23.805 93.0728 23.805 93.0728C23.805 93.0728 18.561 92.6092 17.6806 93.2219C16.8001 93.8346 16.8719 94.4694 17.2417 94.9358C17.6116 95.4023 19.0275 95.2532 20.5951 95.2781C22.1628 95.3029 22.5796 95.4492 22.5796 95.4492L20.3026 97.8752L26.22 99.5174L29.808 99.3822L31.1052 101.016L35.0796 96.3903Z" fill="#FFBF9D"/>
<path d="M17.1123 90.9117L17.2558 96.1336L17.507 96.7822L20.0848 99.9258L26.3721 99.5091L21.3627 97.5577L19.5825 96.2053L18.8925 93.9725C18.8925 93.9725 19.1023 90.528 17.1123 90.9117Z" fill="#FFBF9D"/>
<path d="M17.5482 96.9037H16.0081C16.0081 96.9037 14.0099 93.6165 12.1827 94.7343L12.6023 95.3829C12.6023 95.3829 11.7743 95.0103 11.2554 95.7031L16.2951 100.119H16.527L21.8952 99.7741L17.5482 96.9037Z" fill="#FFBF9D"/>
<path d="M18.4616 97.9028C18.3176 97.9166 18.1729 97.9221 18.0282 97.9194C17.6638 97.923 17.3034 97.9951 16.9656 98.1319L16.916 98.1567L16.8828 98.1098C16.7255 97.889 16.5351 97.6544 16.3308 97.4088C15.9251 96.9037 15.5553 96.4483 15.2462 96.0674C15.088 95.8892 14.9449 95.6981 14.8184 95.4961C15.0069 95.6459 15.1782 95.8162 15.329 96.0039C15.6243 96.3324 16.0245 96.7933 16.4495 97.3204C16.6482 97.5688 16.8359 97.8035 17.0015 98.0381L16.916 98.016C17.2716 97.8745 17.6547 97.815 18.0365 97.8421C18.1808 97.8343 18.3252 97.855 18.4616 97.9028Z" fill="#3983DD"/>
<path d="M29.3528 94.864C28.7447 95.0707 28.1524 95.3216 27.5809 95.6147C27.036 95.9553 26.5175 96.3363 26.0298 96.7546C26.1309 96.5926 26.2566 96.4474 26.4024 96.3241C26.7341 96.0028 27.1051 95.7246 27.5064 95.4961C27.9087 95.2672 28.338 95.0891 28.7843 94.9661C28.9669 94.9012 29.159 94.8667 29.3528 94.864Z" fill="#3983DD"/>
<path d="M24.3293 93.5115C24.1119 93.8228 23.8711 94.1172 23.609 94.3919C23.3836 94.699 23.1345 94.9879 22.8638 95.2558C23.0188 94.9033 23.2336 94.5802 23.4986 94.3008C23.7282 93.992 24.0092 93.725 24.3293 93.5115Z" fill="#3983DD"/>
<path d="M19.08 98.6313C19.0369 98.5955 18.9972 98.5558 18.9613 98.5127L18.6356 98.1511L18.1305 97.5715L17.8159 97.2099C17.6917 97.0767 17.5773 96.9347 17.4737 96.7849C17.2407 96.4296 17.1151 96.0147 17.1121 95.5898C17.1121 95.1455 17.0928 94.6708 17.0845 94.1712C17.0679 93.1693 17.0486 92.0681 17.0293 90.9116V90.8482H17.0873L17.2556 90.8261C17.4411 90.8041 17.6291 90.8251 17.8052 90.8873C17.9813 90.9495 18.1408 91.0513 18.2713 91.1849C18.5051 91.446 18.6752 91.7577 18.7681 92.0957C18.93 92.7092 18.9933 93.3446 18.9558 93.978V93.9559C19.2125 94.8005 19.4388 95.5567 19.632 96.1915L19.6127 96.1667L20.9071 97.1796L21.2521 97.4556C21.2935 97.4853 21.3314 97.5196 21.3653 97.5577C21.3653 97.5577 21.3183 97.5356 21.2355 97.4777L20.8767 97.221L19.5547 96.2439V96.2274C19.356 95.5953 19.1186 94.8474 18.8509 94.0001V93.978C18.8817 93.3597 18.8155 92.7404 18.6549 92.1426C18.5733 91.825 18.4183 91.531 18.2023 91.2842C18.0861 91.166 17.9443 91.0761 17.7878 91.0215C17.6313 90.967 17.4643 90.9492 17.2998 90.9696L17.148 90.9889L17.2059 90.9172C17.2225 92.0736 17.2363 93.1748 17.2473 94.1767C17.2584 95.1786 17.1342 96.1087 17.5868 96.7408C17.6771 96.8842 17.7766 97.0216 17.8849 97.152L18.1913 97.5218C18.3789 97.7481 18.5418 97.9469 18.677 98.1152L18.9806 98.4933C19.0193 98.5351 19.0526 98.5815 19.08 98.6313Z" fill="#3983DD"/>
<path d="M16.5379 100.122C16.4399 100.131 16.3419 100.104 16.2619 100.047C16.0454 99.916 15.8469 99.7574 15.6713 99.5752C15.0969 98.9799 14.5691 98.3413 14.0925 97.6652C13.524 96.8759 13.0465 96.1528 12.696 95.6201C12.5276 95.3441 12.3951 95.1343 12.3068 94.9798C12.2532 94.9047 12.2113 94.8218 12.1826 94.7341C12.2482 94.7987 12.3056 94.871 12.3537 94.9494L12.7815 95.5621C13.1431 96.0838 13.6371 96.8014 14.2057 97.5797C14.6794 98.2528 15.1918 98.8979 15.7403 99.5117C15.9057 99.696 16.0908 99.8616 16.2923 100.006C16.3705 100.052 16.4527 100.09 16.5379 100.122Z" fill="#3983DD"/>
<path d="M25.7097 96.7517L22.9359 96.564L22.1079 94.2926L21.9561 92.7635C21.9237 92.4016 21.757 92.065 21.4888 91.8198C21.2207 91.5746 20.8704 91.4387 20.5071 91.4387H20.4795L20.6341 95.184L21.2054 97.5107L23.4603 98.841H26.2203L25.7097 96.7517Z" fill="#FFBF9D"/>
<path d="M25.7097 96.7517L22.9359 96.564L22.1079 94.2926L21.9561 92.7635C21.9237 92.4016 21.757 92.065 21.4888 91.8198C21.2207 91.5746 20.8704 91.4387 20.5071 91.4387H20.4795L20.6341 95.184L21.2054 97.5107L23.4603 98.841" fill="#FFBF9D"/>
<path d="M23.4603 98.8411C23.4037 98.8194 23.3492 98.7926 23.2975 98.7611L22.8448 98.5099L21.1888 97.555H21.1695V97.5357C21.0012 96.8677 20.8052 96.0784 20.5872 95.2117V95.1979C20.5375 94.0719 20.4823 92.7995 20.4243 91.4526V91.3809H20.4961C20.5209 91.3809 20.5513 91.3809 20.5789 91.3809C20.9125 91.3927 21.233 91.5139 21.4908 91.7259C21.7487 91.9379 21.9297 92.2288 22.0058 92.5539C22.0384 92.7038 22.0596 92.8561 22.0693 93.0093L22.1107 93.4509C22.141 93.7269 22.1659 94.0249 22.1935 94.2982V94.2816C22.4971 95.1289 22.7703 95.8962 23.0215 96.5614L22.9746 96.5255L25.0032 96.6856L25.5552 96.738C25.6194 96.741 25.6832 96.7502 25.7456 96.7656C25.6814 96.7723 25.6166 96.7723 25.5524 96.7656L25.0004 96.7408L22.9718 96.6276H22.9083V96.5973C22.6627 95.9349 22.3812 95.1703 22.0803 94.3285V94.312C22.0527 94.036 22.0224 93.76 21.992 93.4647C21.9782 93.3184 21.9616 93.1721 21.9478 93.0231C21.9378 92.8765 21.9176 92.7307 21.8871 92.587C21.8177 92.2924 21.6534 92.0289 21.4195 91.8369C21.1856 91.6449 20.8951 91.5351 20.5927 91.5244H20.4795L20.5485 91.4499C20.601 92.794 20.6534 94.0691 20.6976 95.1952C20.9073 96.0646 21.095 96.8512 21.2496 97.5246L21.2247 97.4915L22.8642 98.4851L23.3058 98.7611C23.3605 98.7809 23.4125 98.8078 23.4603 98.8411Z" fill="#3983DD"/>
<path d="M85.1238 52.5559C82.7475 43.4948 80.5533 32.9599 67.3025 33.8983C67.3025 33.8983 59.1384 35.4688 55.2634 41.4938C52.9808 45.0377 51.0047 60.317 50.6128 72.3838C50.5962 72.875 50.8004 76.3002 50.7866 76.7804L85.8552 79.7005H92.1839C92.1839 79.7005 91.7892 73.3001 89.8848 67.0901C88.0218 61.054 85.9656 55.752 85.1238 52.5559Z" fill="#263238"/>
<path d="M65.5417 37.3512L66.3697 36.5591L75.3259 40.1692C75.951 40.2041 76.5404 40.472 76.9778 40.9201C77.4151 41.3681 77.6687 41.9638 77.6884 42.5897L77.6084 71.7739C77.6084 73.7528 77.2247 75.4668 76.0297 77.0428L74.7711 78.6988C71.9035 82.4855 66.0026 82.1736 63.7311 78.0032C63.5944 77.7656 63.4886 77.5115 63.4165 77.247C63.3593 77.0326 63.3142 76.8151 63.2812 76.5956C63.0052 74.2469 63.0052 72.21 63.0052 72.21C62.8451 69.6322 62.7927 68.5751 62.7927 68.5999C62.7927 68.6248 57.3058 67.9679 55.8237 60.9271C55.0868 57.4247 55.2248 52.6057 55.4318 47.864C55.7133 41.309 60.2673 37.3429 65.5417 37.3512Z" fill="#FFBF9D"/>
<path d="M67.8462 52.5532C67.8562 52.7904 67.9585 53.0143 68.1312 53.1772C68.3039 53.3401 68.5334 53.4292 68.7708 53.4254C68.887 53.429 69.0028 53.4094 69.1113 53.3675C69.2198 53.3256 69.3188 53.2624 69.4025 53.1816C69.4861 53.1008 69.5527 53.0041 69.5983 52.8971C69.6438 52.7901 69.6675 52.675 69.6678 52.5587C69.6578 52.3217 69.556 52.098 69.3839 51.9347C69.2119 51.7714 68.9831 51.6814 68.7459 51.6838C68.6293 51.6801 68.5132 51.6998 68.4043 51.7418C68.2955 51.7838 68.1962 51.8472 68.1123 51.9283C68.0284 52.0094 67.9616 52.1064 67.9159 52.2138C67.8702 52.3211 67.8465 52.4365 67.8462 52.5532Z" fill="#263238"/>
<path d="M58.4956 52.796C58.5042 53.0335 58.6056 53.2581 58.7779 53.4217C58.9503 53.5852 59.1799 53.6747 59.4174 53.671C59.5337 53.6743 59.6495 53.6544 59.758 53.6124C59.8665 53.5704 59.9655 53.5072 60.0493 53.4265C60.1331 53.3458 60.1999 53.2492 60.2459 53.1424C60.2919 53.0356 60.3161 52.9206 60.3172 52.8043C60.3079 52.5666 60.2059 52.342 60.0331 52.1785C59.8603 52.015 59.6305 51.9256 59.3926 51.9294C59.2764 51.9257 59.1606 51.9454 59.0521 51.9872C58.9436 52.0291 58.8446 52.0923 58.7609 52.1731C58.6773 52.2539 58.6107 52.3507 58.5651 52.4577C58.5196 52.5647 58.4959 52.6797 58.4956 52.796Z" fill="#263238"/>
<path d="M56.3648 49.7463C56.4834 49.8594 57.1458 49.3129 58.1256 49.2688C59.1054 49.2246 59.8479 49.6745 59.95 49.5448C59.9997 49.4896 59.8727 49.2688 59.5498 49.0673C59.1101 48.7956 58.5975 48.6655 58.0815 48.6947C57.5721 48.7174 57.0835 48.9032 56.6877 49.2246C56.3979 49.4758 56.304 49.6966 56.3648 49.7463Z" fill="#263238"/>
<path d="M66.0802 49.4039C66.2099 49.5033 66.8171 48.8933 67.7858 48.747C68.7546 48.6007 69.5412 48.9761 69.6268 48.8409C69.6709 48.7801 69.5246 48.5842 69.1796 48.4075C68.7154 48.1825 68.1932 48.1055 67.6837 48.1867C67.1786 48.263 66.7108 48.4979 66.3479 48.8574C66.0884 49.1279 66.0194 49.368 66.0802 49.4039Z" fill="#263238"/>
<path d="M62.884 56.9775C62.884 56.9223 62.2712 56.8478 61.2776 56.7705C61.0265 56.7567 60.7864 56.7208 60.7256 56.5524C60.6905 56.2948 60.7358 56.0326 60.8554 55.8017C61.0596 55.1835 61.2749 54.5376 61.4984 53.8697C62.3899 51.1097 63.022 48.841 62.9116 48.8051C62.8012 48.7692 61.987 50.9828 61.0955 53.7455C60.8802 54.4272 60.676 55.0758 60.4828 55.6968C60.4027 55.9866 60.2564 56.3178 60.4027 56.6849C60.4429 56.7713 60.5024 56.8473 60.5766 56.9071C60.6507 56.9669 60.7376 57.0089 60.8305 57.0299C60.971 57.0603 61.1147 57.0732 61.2583 57.0686C62.2657 57.0603 62.8812 57.0354 62.884 56.9775Z" fill="#263238"/>
<path d="M62.7871 68.6052C66.134 68.4899 69.3829 67.4464 72.1711 65.5913C72.1711 65.5913 70.0293 70.6255 62.892 70.3192L62.7871 68.6052Z" fill="#3983DD"/>
<path d="M65.9445 58.9703C65.8013 58.8057 65.6262 58.672 65.4298 58.5771C65.2334 58.4822 65.0198 58.4282 64.8019 58.4183C64.1864 58.3824 63.7531 58.4597 63.4219 58.9454C63.3573 59.0654 63.3179 59.1973 63.3061 59.333C63.2942 59.4687 63.3101 59.6054 63.3529 59.7348C63.4247 59.8479 63.3722 59.8507 63.4826 59.9307C63.883 60.2113 64.3352 60.4092 64.8129 60.5131C65.2877 60.6207 65.8341 60.5131 66.0798 60.1239C66.1767 59.9406 66.2157 59.7321 66.1916 59.5261C66.1674 59.3201 66.0813 59.1262 65.9445 58.9703Z" fill="#3983DD"/>
<path d="M65.8454 44.9135C65.9724 45.1619 66.8142 44.9135 67.8519 44.8859C68.8897 44.8583 69.7536 45.0515 69.8529 44.7948C69.8971 44.6733 69.7149 44.447 69.3451 44.2428C68.8678 43.9943 68.3344 43.8736 67.7967 43.8923C67.2654 43.9031 66.7464 44.0545 66.2925 44.3311C65.9448 44.5574 65.7902 44.792 65.8454 44.9135Z" fill="#263238"/>
<path d="M56.5057 47.9744C56.6878 48.1869 57.353 47.9219 58.1617 47.8722C58.9704 47.8226 59.6659 47.944 59.8177 47.7039C59.8812 47.588 59.7625 47.3699 59.4506 47.174C59.0366 46.937 58.5594 46.8338 58.0844 46.8786C57.6081 46.9096 57.1534 47.0892 56.7845 47.392C56.5057 47.6349 56.4229 47.8695 56.5057 47.9744Z" fill="#263238"/>
<path d="M77.5091 55.0455C77.5091 55.0455 73.7389 55.9563 68.4011 44.4333C66.5795 40.5113 63.0439 36.559 63.0439 36.559L66.3559 36.0815C66.3559 36.0815 76.2505 38.8691 76.4161 38.9933C76.5817 39.1175 78.9139 44.1104 78.9139 44.1104L77.5091 55.0455Z" fill="#263238"/>
<path d="M76.2728 54.5844C76.2479 54.0545 76.7972 52.7766 77.3133 52.669C78.6933 52.393 81.2159 52.3682 81.4174 55.9093C81.6934 60.7475 76.7779 60.0244 76.7613 59.8864C76.7447 59.7484 76.3611 56.4088 76.2728 54.5844Z" fill="#FFBF9D"/>
<path d="M78.1358 57.96C78.1552 57.9434 78.2214 58.0152 78.3677 58.0731C78.5736 58.147 78.8002 58.1381 78.9997 58.0483C79.4993 57.833 79.8829 56.9967 79.8581 56.1163C79.8456 55.7005 79.742 55.2925 79.5545 54.9212C79.5005 54.7728 79.4112 54.6397 79.2944 54.5335C79.1776 54.4272 79.0366 54.3509 78.8838 54.3112C78.7853 54.2909 78.6827 54.3057 78.594 54.3531C78.5053 54.4005 78.4359 54.4775 78.398 54.5707C78.3401 54.7087 78.3787 54.8053 78.3511 54.8136C78.3235 54.8218 78.2435 54.739 78.2711 54.5376C78.291 54.4158 78.3525 54.3046 78.445 54.2229C78.5076 54.1689 78.5804 54.128 78.6591 54.1024C78.7377 54.0768 78.8207 54.0671 78.9031 54.0739C79.1041 54.1013 79.2948 54.1799 79.4567 54.3022C79.6186 54.4245 79.7463 54.5863 79.8277 54.7722C80.0563 55.1802 80.1822 55.6377 80.1948 56.1052C80.2196 57.0823 79.7725 58.0234 79.0908 58.2636C78.9631 58.3087 78.8269 58.3246 78.6923 58.3103C78.5576 58.296 78.4278 58.2517 78.3125 58.1808C78.1496 58.0869 78.1082 57.9793 78.1358 57.96Z" fill="#3983DD"/>
<path d="M66.5685 59.166C66.5547 59.2902 65.7267 59.2709 64.7469 59.4614C63.7671 59.6518 62.9998 59.9582 62.9391 59.8505C62.8784 59.7429 63.6043 59.2351 64.6669 59.0391C65.7295 58.8431 66.5906 59.0639 66.5685 59.166Z" fill="#263238"/>
<path d="M104.38 96.6606C104.38 96.6606 108.432 93.1913 109.608 93.0975C110.784 93.0036 113.869 93.5805 113.869 93.5805C113.869 93.5805 115.821 93.597 116.789 93.4756C117.801 93.3149 118.835 93.3656 119.825 93.6246C120.118 93.713 120.485 94.4388 119.624 94.9356C119.26 95.1454 115.716 95.3855 115.716 95.3855L124.581 97.9164L123.43 98.8659C123.274 98.9949 123.08 99.0678 122.878 99.0729L110.124 99.5255L109.539 100.952L104.38 96.6606Z" fill="#FFBF9D"/>
<path d="M114.057 96.6635H118.197C118.197 96.6635 119.649 94.7315 120.173 93.9339C120.634 93.2301 121.186 93.0231 121.669 93.1887C121.795 93.2346 121.9 93.3249 121.965 93.4426C122.011 93.5273 122.035 93.6222 122.035 93.7186C122.035 93.815 122.011 93.9099 121.965 93.9946L120.143 97.3921L121.098 97.072C121.098 97.072 123.008 95.2007 123.38 94.7674C123.753 94.3341 125.111 92.5125 126.314 93.84L124.658 95.6947L126.314 94.519C126.314 94.519 127.645 93.3763 128.354 94.737L123.386 98.9212" fill="#FFBF9D"/>
<path d="M109.746 94.944C109.799 94.9183 109.854 94.8989 109.912 94.8861C110.072 94.8321 110.238 94.7942 110.406 94.7729C111.031 94.6892 111.668 94.7554 112.263 94.9661C112.679 95.1097 113.079 95.2946 113.458 95.5181C113.663 95.6395 113.87 95.772 114.079 95.9183L114.394 96.1419C114.493 96.2136 114.617 96.3075 114.698 96.3516C115.746 96.4317 116.947 96.5034 118.203 96.5917L118.142 96.6166C118.531 96.1557 118.912 95.6533 119.282 95.1317C119.428 94.9275 119.558 94.7205 119.699 94.5162C119.839 94.312 119.958 94.0995 120.107 93.9063C120.249 93.7057 120.412 93.5207 120.593 93.3543C120.685 93.2741 120.786 93.2047 120.894 93.1473C121.009 93.0808 121.142 93.051 121.275 93.0617H121.25C121.364 93.0425 121.48 93.0466 121.593 93.0736C121.705 93.1006 121.811 93.1501 121.904 93.219C121.986 93.2976 122.049 93.3946 122.087 93.502C122.125 93.6094 122.137 93.7243 122.122 93.8373V93.8511C121.333 95.2642 120.645 96.4951 120.115 97.4391C120.058 97.6136 119.962 97.7732 119.836 97.9068C119.709 98.0403 119.555 98.1444 119.384 98.2119C119.137 98.3146 118.873 98.3707 118.606 98.3775C118.441 98.3866 118.276 98.3866 118.112 98.3775C118.054 98.3791 117.997 98.3735 117.941 98.3609H118.112C118.222 98.3609 118.388 98.3609 118.603 98.3416C118.863 98.326 119.118 98.2653 119.356 98.1622C119.514 98.0953 119.655 97.9954 119.771 97.8692C119.887 97.743 119.974 97.5935 120.027 97.4308L121.992 93.8069V93.8317C122.004 93.7407 121.994 93.6482 121.964 93.5615C121.934 93.4748 121.884 93.3963 121.818 93.3322C121.657 93.2208 121.459 93.1772 121.266 93.2107H121.244C121.147 93.2092 121.051 93.2351 120.968 93.2853C120.868 93.3357 120.775 93.3998 120.692 93.4757C120.518 93.6306 120.361 93.8047 120.226 93.9946C119.95 94.381 119.701 94.8226 119.398 95.22C119.025 95.7472 118.642 96.2467 118.247 96.7132L118.225 96.7408H118.189C116.925 96.6469 115.749 96.5752 114.667 96.4786C114.544 96.4133 114.427 96.3357 114.319 96.2467L114.008 96.0232C113.803 95.8769 113.599 95.7472 113.4 95.623C113.03 95.4004 112.638 95.2154 112.23 95.071C111.649 94.8554 111.025 94.7761 110.408 94.8391C110.243 94.8562 110.079 94.8857 109.917 94.9275C109.861 94.9369 109.803 94.9425 109.746 94.944Z" fill="#3983DD"/>
<path d="M126.323 93.8401C126.28 93.9228 126.226 93.999 126.163 94.0664C126.049 94.2072 125.887 94.4086 125.68 94.6515C125.271 95.1428 124.697 95.8135 124.054 96.5476C123.411 97.2818 122.859 97.9773 122.381 98.4134C122.198 98.5902 121.998 98.7491 121.785 98.8881C121.71 98.9441 121.623 98.9836 121.531 99.004C121.602 98.9447 121.677 98.8903 121.755 98.8412C121.95 98.687 122.135 98.5191 122.307 98.3389C122.757 97.8918 123.281 97.1825 123.938 96.4566C124.595 95.7307 125.169 95.06 125.594 94.5853L126.107 94.0333C126.17 93.9597 126.243 93.8948 126.323 93.8401Z" fill="#3983DD"/>
<path d="M124.051 94.0332C123.905 94.2471 123.736 94.445 123.549 94.6238C123.226 94.9771 122.771 95.4518 122.263 95.9818C121.846 96.4123 121.457 96.8098 121.159 97.1106C120.83 97.2437 120.486 97.3363 120.135 97.3866C120.223 97.3423 120.316 97.3062 120.411 97.279L121.134 97.003L121.112 97.0168C121.41 96.6966 121.791 96.2964 122.216 95.8686C122.724 95.3442 123.19 94.875 123.532 94.541C123.691 94.3576 123.864 94.1877 124.051 94.0332Z" fill="#3983DD"/>
<path d="M90.6438 76.0657C90.6438 76.0657 96.5944 77.6002 97.1767 85.687C97.5107 90.2962 95.057 105.098 95.057 105.098L103.845 96.0729L111.678 101.521C111.678 101.521 101.016 114.54 98.565 116.508C96.1141 118.476 92.1839 121.617 90.9143 121.36C89.6447 121.103 89.6392 115.23 89.6392 115.23V82.8001L90.6438 76.0657Z" fill="#3983DD"/>
<path d="M47.864 77.0564C47.864 77.0564 42.5703 78.798 42.7801 89.148C42.9898 99.498 42.827 102.973 42.827 102.973L34.892 94.5741L28.3066 101.844C28.3066 101.844 35.6814 112.801 40.8398 118.128C45.7029 123.143 50.0251 118.788 51.4299 115.26C52.567 112.404 53.4834 101.54 53.4834 101.54L47.864 77.0564Z" fill="#3983DD"/>
<g opacity="0.3">
<path d="M91.1049 94.6956C91.5851 91.6596 91.7121 88.3725 90.3293 85.5876C86.9373 93.9725 87.0891 103.602 88.3035 112.487L90.9917 120.173C92.6863 115.023 91.0773 109.536 91.1131 104.165C91.1352 101.104 90.6274 97.7234 91.1049 94.6956Z" fill="black"/>
</g>
<path d="M46.7627 83.6418C46.7627 83.6418 50.301 107.444 50.9855 109.528C51.67 111.612 51.67 117.755 51.67 117.755C51.67 117.755 47.9578 124.672 47.7287 129.477L92.46 129.571L89.5537 109.818C89.4613 108.571 89.4392 107.319 89.4875 106.07C89.6752 102.589 89.9429 95.1289 90.942 90.5418C92.1012 85.2095 90.5391 76.0849 90.5391 76.0849L77.1779 72.7922C74.0149 77.338 66.1379 77.3987 63.0136 72.7922L47.9329 77.0564L46.7627 83.6418Z" fill="#3983DD"/>
<path d="M90.4316 108.874C90.464 108.796 90.5087 108.724 90.5641 108.661C90.658 108.531 90.7987 108.344 90.9754 108.109C91.4344 107.511 91.9482 106.956 92.5099 106.453C93.0816 105.962 93.7188 105.552 94.4033 105.236C94.6793 105.12 94.8835 105.032 95.0353 104.982C95.1129 104.949 95.1946 104.925 95.2782 104.913C95.3086 104.971 93.923 105.415 92.6038 106.569C92.051 107.067 91.5327 107.602 91.0526 108.17C90.8627 108.419 90.6551 108.654 90.4316 108.874Z" fill="#263238"/>
<path d="M49.0092 108.369C48.9816 108.369 48.8795 107.886 48.54 107.16C48.1024 106.212 47.4633 105.371 46.6673 104.695C45.8712 104.02 44.9373 103.526 43.9308 103.249C43.158 103.034 42.6557 103.011 42.6612 102.973C42.7776 102.958 42.8953 102.958 43.0117 102.973C43.3302 103 43.6459 103.054 43.9556 103.133C44.9892 103.387 45.9499 103.878 46.7625 104.565C47.571 105.256 48.211 106.123 48.6338 107.099C48.7612 107.392 48.8654 107.695 48.9457 108.004C48.9829 108.122 49.0043 108.245 49.0092 108.369Z" fill="#263238"/>
<path d="M49.2965 95.4711C49.2227 95.4459 49.1537 95.4086 49.0922 95.3607C48.968 95.2834 48.7914 95.1619 48.5789 95.0019C48.0292 94.5851 47.515 94.1236 47.0415 93.6219C46.571 93.1204 46.1296 92.5924 45.7195 92.0404C45.5364 91.8204 45.3755 91.5828 45.2393 91.3311C45.4383 91.533 45.6228 91.7488 45.7913 91.9769C46.128 92.3826 46.5917 92.9401 47.1409 93.5225C47.611 94.0186 48.1105 94.4859 48.6368 94.9218C48.8667 95.0925 49.087 95.2759 49.2965 95.4711Z" fill="#263238"/>
<path d="M80.5205 108.355C80.5205 108.355 80.5205 108.374 80.4846 108.41L80.3687 108.562C80.2583 108.691 80.1121 108.896 79.8968 109.133C79.2992 109.816 78.6536 110.455 77.9648 111.046C76.9384 111.926 75.8449 112.725 74.6942 113.436C73.2893 114.3 71.8381 115.086 70.3472 115.79C68.7629 116.544 67.2339 117.214 65.8484 117.838C64.4629 118.462 63.2236 119.033 62.1997 119.549C61.1757 120.065 60.3587 120.507 59.8012 120.827C59.5252 120.982 59.3099 121.103 59.1637 121.197L58.9953 121.291C58.9567 121.31 58.9373 121.321 58.9346 121.318C58.9498 121.303 58.9675 121.29 58.987 121.28L59.1471 121.172C59.2906 121.081 59.4976 120.943 59.7736 120.778C60.3256 120.444 61.1315 119.983 62.1527 119.458C63.1739 118.934 64.4132 118.354 65.7959 117.717C67.1787 117.079 68.705 116.414 70.2837 115.66C71.7705 114.957 73.2197 114.177 74.6252 113.323C75.7715 112.625 76.8639 111.841 77.893 110.979C78.5877 110.399 79.2433 109.773 79.8554 109.105C80.0762 108.876 80.2307 108.678 80.3439 108.553L80.4736 108.413L80.5205 108.355Z" fill="#263238"/>
<path d="M47.8311 129.104V129.047C47.8311 129 47.8311 128.944 47.8311 128.873C47.8311 128.713 47.8559 128.489 47.8725 128.199C47.9788 127.36 48.1477 126.529 48.3775 125.715C49.2256 122.862 50.3805 120.109 51.822 117.504V117.54C51.6426 114.951 51.3749 112.059 51.0658 109.017C50.4751 103.271 49.8569 98.0821 49.4098 94.323C49.1835 92.4517 48.9985 90.9337 48.8578 89.8766C48.7971 89.3577 48.7501 88.9492 48.7143 88.665L48.6811 88.3503C48.6775 88.3145 48.6775 88.2785 48.6811 88.2427C48.6924 88.2767 48.6998 88.3119 48.7032 88.3476C48.7143 88.4248 48.7308 88.5297 48.7529 88.6622C48.7915 88.9382 48.8495 89.3494 48.9213 89.8683C49.062 90.9254 49.2607 92.4406 49.5091 94.3119C49.9866 98.0655 50.6131 103.254 51.2121 109.001C51.5212 112.037 51.7861 114.94 51.9545 117.532V117.551V117.568C50.512 120.162 49.3455 122.9 48.4741 125.737C48.2332 126.547 48.0488 127.372 47.9221 128.207C47.8973 128.483 47.8752 128.718 47.8614 128.875C47.8614 128.947 47.8614 129.005 47.8421 129.049C47.8411 129.068 47.8374 129.087 47.8311 129.104Z" fill="#263238"/>
<path d="M91.4915 84.1965C91.4957 84.236 91.4957 84.2758 91.4915 84.3152C91.4915 84.4008 91.4915 84.5139 91.4915 84.663C91.4915 84.9666 91.4915 85.4165 91.4667 85.9933C91.4363 87.1497 91.3177 88.8195 91.1107 90.8785C90.9037 92.9375 90.6111 95.3801 90.3075 98.0959C90.0039 100.812 89.7058 103.801 89.612 106.953C89.5464 109.914 89.7506 112.875 90.2219 115.799C90.6194 118.503 91.0886 120.918 91.4501 122.955C91.8117 124.992 92.0932 126.64 92.2478 127.785C92.3306 128.359 92.3775 128.806 92.4106 129.107C92.4106 129.254 92.4355 129.383 92.4437 129.452C92.4474 129.492 92.4474 129.531 92.4437 129.571C92.4323 129.533 92.4248 129.494 92.4217 129.455C92.4217 129.369 92.3941 129.256 92.372 129.113C92.3306 128.809 92.2754 128.365 92.1815 127.793C92.0132 126.651 91.7261 125.003 91.3535 122.972C90.9809 120.94 90.4979 118.525 90.0922 115.818C89.6127 112.886 89.4039 109.917 89.4685 106.947C89.5651 103.79 89.8714 100.798 90.1778 98.0821C90.4841 95.3663 90.7988 92.9237 91.0058 90.8675C91.2128 88.8113 91.3563 87.147 91.406 85.9905C91.4419 85.4137 91.4446 84.9666 91.4557 84.663C91.4557 84.5139 91.4557 84.4008 91.4557 84.3152C91.4639 84.2746 91.4759 84.2349 91.4915 84.1965Z" fill="#263238"/>
<g opacity="0.3">
<path d="M48.8108 89.2971C48.0478 96.9197 48.9317 104.617 51.4024 111.868L48.8108 89.2971Z" fill="black"/>
</g>
<g opacity="0.3">
<path d="M76.4795 115.669C73.0902 118.782 69.6899 121.443 65.5195 122.925C68.6632 123.201 71.8344 121.989 74.2632 119.977C76.692 117.965 78.4225 115.837 79.5348 112.895L76.4795 115.669Z" fill="black"/>
</g>
<path d="M72.6184 119.097C72.5908 119.069 74.6995 117.134 77.327 114.777C79.9545 112.42 82.1073 110.535 82.1322 110.566C82.157 110.596 80.0511 112.528 77.4236 114.885C74.7961 117.242 72.646 119.127 72.6184 119.097Z" fill="#263238"/>
<path d="M80.1148 60.6868C80.1148 61.0292 80.0133 61.3639 79.823 61.6485C79.6327 61.9332 79.3623 62.155 79.0459 62.2859C78.7296 62.4168 78.3815 62.4509 78.0457 62.3839C77.7099 62.3169 77.4016 62.1518 77.1597 61.9095C76.9178 61.6672 76.7532 61.3586 76.6867 61.0227C76.6203 60.6869 76.6549 60.3388 76.7863 60.0227C76.9177 59.7065 77.14 59.4364 77.4249 59.2466C77.7099 59.0568 78.0447 58.9558 78.3871 58.9563C78.6142 58.9563 78.8391 59.0011 79.0489 59.0881C79.2587 59.1751 79.4493 59.3026 79.6098 59.4633C79.7702 59.6241 79.8975 59.8148 79.9841 60.0248C80.0708 60.2347 80.1152 60.4597 80.1148 60.6868Z" fill="#455A64"/>
<path d="M90.4122 83.4128C89.9025 79.1808 89.3929 74.9488 88.8832 70.7168L77.9398 67.4048C77.7273 74.9561 76.4052 83.4349 74.5063 90.7461C78.5546 92.0565 82.8329 92.5022 87.0643 92.0543C87.2483 90.0119 87.4323 87.9695 87.6163 85.9271C87.8887 87.4672 88.1647 89.0064 88.4443 90.5446C89.5925 89.9015 90.2687 88.6126 90.4978 87.3237C90.7269 86.0348 90.5695 84.7321 90.4122 83.4128Z" fill="#263238"/>
<path d="M81.8476 92.1122C81.8476 92.1122 81.8476 92.0598 81.8808 91.9549C81.9139 91.85 81.9415 91.6789 81.9884 91.4885C82.085 91.0745 82.2258 90.4728 82.4079 89.7028C82.7667 88.1489 83.2966 85.905 83.8128 83.1036C84.4425 79.8236 84.8409 76.5034 85.0051 73.1676C85.2154 69.0877 84.8436 64.9987 83.9011 61.0236C82.9682 57.0399 81.2419 53.2852 78.8254 49.9836C78.5494 49.611 78.2734 49.2329 77.9643 48.8796C77.6552 48.5263 77.382 48.1813 77.0701 47.8639L76.6147 47.3809L76.151 46.92C75.8474 46.6109 75.5328 46.3266 75.2292 46.0396C74.001 44.9024 72.8004 43.9033 71.7267 42.9649C70.6531 42.0265 69.6954 41.1626 68.9005 40.354C68.699 40.1525 68.5168 39.9482 68.3485 39.7606C68.1801 39.5729 67.9952 39.3824 67.8406 39.2086C67.6861 39.0347 67.5288 38.8498 67.3852 38.6814L66.9961 38.1846C66.7422 37.8755 66.5517 37.5774 66.3723 37.3262C66.1929 37.0751 66.0604 36.8543 65.9528 36.6721L65.7099 36.2636C65.6547 36.1698 65.6299 36.1201 65.6299 36.1201C65.6299 36.1201 65.663 36.1643 65.7237 36.2554L65.9776 36.6583C66.088 36.835 66.226 37.0558 66.4082 37.3014C66.5904 37.547 66.7836 37.8534 67.0402 38.1515L67.4322 38.6428L67.8903 39.1644C68.0476 39.3493 68.2188 39.5342 68.4037 39.7164C68.5886 39.8986 68.768 40.1083 68.9722 40.3043C69.7671 41.1074 70.7304 41.9603 71.8068 42.8959C72.8832 43.8316 74.0865 44.8279 75.323 45.9595C75.6266 46.2355 75.9468 46.5336 76.2504 46.84L76.7168 47.3009L77.175 47.7866C77.4896 48.104 77.7739 48.4601 78.0747 48.8051C78.3756 49.1501 78.6571 49.5254 78.9469 49.9091C81.3737 53.224 83.1058 56.9951 84.0391 60.996C84.9871 64.9852 85.3589 69.0896 85.1431 73.1842C84.9721 76.5211 84.5626 79.8416 83.9176 83.1202C83.3877 85.9243 82.844 88.1654 82.4686 89.7166C82.2782 90.4894 82.1264 91.0966 82.0215 91.4968C81.9691 91.6955 81.9277 91.8473 81.9001 91.9577C81.8725 92.0681 81.8476 92.1122 81.8476 92.1122Z" fill="#455A64"/>
</svg>
